<svg width="90" height="90" viewBox="0 0 90 90" fill="none" xmlns="http://www.w3.org/2000/svg">
<path d="M45 76.9607C64.2748 76.9607 79.9002 76.0484 79.9002 74.9231C79.9002 73.7978 64.2748 72.8855 45 72.8855C25.7251 72.8855 10.0998 73.7978 10.0998 74.9231C10.0998 76.0484 25.7251 76.9607 45 76.9607Z" fill="#F5F5F5"/>
<path d="M56.97 17.874H15.4764L18.207 74.3832H59.7006L56.97 17.874Z" fill="#20B2AA"/>
<path opacity="0.2" d="M56.97 17.874H15.4764L18.207 74.3832H59.7006L56.97 17.874Z" fill="black"/>
<path d="M57.3534 17.874H15.8598L18.5922 74.3832H60.0858L57.3534 17.874Z" fill="#20B2AA"/>
<path opacity="0.2" d="M55.1628 19.7747H17.757L20.3706 71.8289L52.8966 71.7857L58.302 66.9941L55.1628 19.7747Z" fill="black"/>
<path d="M55.449 19.7729C55.8478 35.3621 57.1068 50.9173 59.22 66.3677C56.256 68.4077 53.307 70.4478 50.373 72.4877H22.3974C19.7568 55.0296 18.207 37.4239 17.757 19.7729H55.449Z" fill="white"/>
<path d="M59.22 66.3677C56.256 68.4077 53.307 70.4477 50.373 72.4877C51.0138 69.7877 51.6816 67.0877 52.3764 64.3877L59.22 66.3677Z" fill="#EBEBEB"/>
<path d="M27.9 24.5359C27.9708 26.4415 28.0536 28.3483 28.1484 30.2563H22.4298C22.3338 28.3483 22.251 26.4415 22.1814 24.5359H27.9ZM28.4832 23.9329H21.5568C21.6372 26.2405 21.7374 28.5493 21.8574 30.8593H28.7856C28.6656 28.5505 28.5654 26.2417 28.485 23.9329H28.4832Z" fill="#20B2AA"/>
<path d="M51.2676 26.6833H31.68C31.662 26.2531 31.6458 25.8211 31.6296 25.3909H51.2154C51.2316 25.8211 51.2496 26.2531 51.2676 26.6833Z" fill="#E0E0E0"/>
<path d="M47.1293 29.4013H31.8006C31.7808 28.9693 31.7591 28.5391 31.7411 28.1089H47.0681C47.0885 28.5397 47.1089 28.9705 47.1293 29.4013Z" fill="#E0E0E0"/>
<path d="M28.4616 35.739C28.5816 37.647 28.7154 39.555 28.863 41.463H23.1426C22.995 39.555 22.8612 37.647 22.7412 35.739H28.4616ZM29.0268 35.136H22.1004C22.242 37.446 22.4034 39.756 22.5846 42.066H29.52C29.34 39.7572 29.178 37.4472 29.034 35.136H29.0268Z" fill="#20B2AA"/>
<path d="M39.492 37.8882H32.292C32.2632 37.4562 32.2326 37.026 32.2056 36.594H39.4056C39.4326 37.026 39.4614 37.4562 39.492 37.8882Z" fill="#E0E0E0"/>
<path d="M46.3086 37.8882H41.0148C40.986 37.4562 40.9554 37.026 40.9284 36.594H46.2222C46.2492 37.026 46.278 37.4562 46.3086 37.8882Z" fill="#E0E0E0"/>
<path d="M49.6314 40.6079H32.49C32.4576 40.1759 32.427 39.7457 32.3946 39.3137H49.536C49.5684 39.7457 49.599 40.1759 49.6314 40.6079Z" fill="#E0E0E0"/>
<path d="M29.3201 46.9475C29.4917 48.8555 29.6765 50.7635 29.8745 52.6715H24.1541C23.9561 50.7635 23.7713 48.8555 23.5997 46.9475H29.3201ZM29.8709 46.3445H22.9427C23.1467 48.6557 23.3699 50.9663 23.6123 53.2763H30.5405C30.3005 50.9651 30.0773 48.6545 29.8709 46.3445Z" fill="#20B2AA"/>
<path d="M52.938 50.5242H33.3486L33.4782 51.8166H53.0676L52.938 50.5242Z" fill="#E0E0E0"/>
<path d="M48.42 47.8044H33.0912C33.1308 48.2346 33.1704 48.6666 33.2118 49.0968H48.5388C48.4992 48.6666 48.4578 48.24 48.42 47.8044Z" fill="#E0E0E0"/>
<path d="M30.4776 58.1562C30.7008 60.0642 30.9366 61.9716 31.185 63.8784H25.4646C25.2162 61.9728 24.9804 60.0654 24.7572 58.1562H30.4776ZM31.0176 57.5532H24.084C24.348 59.8644 24.633 62.1738 24.939 64.4814H31.86C31.5564 62.1738 31.2714 59.8644 31.005 57.5532H31.0176Z" fill="#20B2AA"/>
<path d="M54.0162 60.3001H34.4268C34.3746 59.8681 34.3224 59.4379 34.272 59.0059H53.8596C53.9118 59.4433 53.9622 59.8735 54.0162 60.3001Z" fill="#E0E0E0"/>
<path d="M43.6841 63.0234H34.7669C34.7111 62.5932 34.6571 62.1612 34.6031 61.731H43.5203C43.5743 62.1612 43.6283 62.5932 43.6841 63.0234Z" fill="#E0E0E0"/>
<path d="M49.0086 63.0234H45.1584C45.1026 62.5932 45.0486 62.1612 44.9946 61.731H48.8448C48.8988 62.1612 48.96 62.5932 49.0086 63.0234Z" fill="#E0E0E0"/>
<path d="M25.38 29.4389L25.1262 29.0357C24.5718 28.1537 23.4414 27.3671 23.0508 27.1367L23.3424 26.6201C24.1087 27.0855 24.7934 27.6735 25.3692 28.3607C26.2404 27.1745 27.5292 25.9487 29.2932 24.6311L29.6658 25.1171C27.783 26.5265 26.4654 27.8171 25.6338 29.0591L25.38 29.4389Z" fill="#20B2AA"/>
<path d="M26.064 40.6459L25.7994 40.2427C25.2234 39.3607 24.0714 38.5723 23.6754 38.3419L23.9508 37.8253C24.7317 38.2908 25.4325 38.8791 26.0262 39.5677C26.865 38.3797 28.1196 37.1539 29.8494 35.8345C29.9772 35.9965 30.1068 36.1585 30.2346 36.3223C28.3896 37.7335 27.1062 39.0223 26.3088 40.2661C26.226 40.3921 26.145 40.5199 26.064 40.6459Z" fill="#20B2AA"/>
<path d="M27.0576 51.8832L26.7822 51.48C26.181 50.598 25.0074 49.8096 24.606 49.581C24.6924 49.401 24.786 49.2354 24.8688 49.0644C25.6619 49.5306 26.3773 50.1179 26.9892 50.805C27.7974 49.617 29.0196 48.393 30.7116 47.0718L31.1112 47.5596C29.3112 48.9708 28.0512 50.2596 27.2898 51.5034L27.0576 51.8832Z" fill="#20B2AA"/>
<path d="M45.2034 69.3827C44.1414 69.3827 43.5294 68.9903 42.9894 68.6447C42.4494 68.2991 41.985 68.0003 41.0886 68.0003C40.1922 68.0003 39.7926 68.3135 39.3696 68.6447C38.9466 68.9759 38.4282 69.3827 37.3662 69.3827C36.3042 69.3827 35.6922 68.9903 35.154 68.6447C34.6158 68.2991 34.1514 68.0003 33.2532 68.0003C32.355 68.0003 31.9572 68.3135 31.5342 68.6447C31.1112 68.9759 30.5928 69.3827 29.5326 69.3827C28.4724 69.3827 27.8586 68.9903 27.3186 68.6447C26.7786 68.2991 26.316 68.0003 25.4178 68.0003C25.3944 67.8203 25.3692 67.6547 25.3458 67.4819C26.4078 67.4819 27.018 67.8743 27.558 68.2199C28.098 68.5655 28.5606 68.8643 29.457 68.8643C30.3534 68.8643 30.753 68.5511 31.176 68.2199C31.599 67.8887 32.1192 67.4819 33.1812 67.4819C34.2432 67.4819 34.8516 67.8743 35.3916 68.2199C35.9316 68.5655 36.396 68.8643 37.2924 68.8643C38.1888 68.8643 38.5884 68.5511 39.0114 68.2199C39.4344 67.8887 39.9546 67.4819 41.0166 67.4819C42.0786 67.4819 42.6888 67.8743 43.2288 68.2199C43.7688 68.5655 44.2314 68.8643 45.1296 68.8643C45.153 69.0371 45.18 69.2099 45.2034 69.3827Z" fill="#EBEBEB"/>
<path d="M46.7262 19.2726C46.1178 17.6526 44.712 16.5888 43.2 16.5888H40.1184C39.889 16.5868 39.6652 16.5175 39.4748 16.3895C39.2845 16.2615 39.1358 16.0804 39.0474 15.8688C38.8295 15.3514 38.4653 14.909 37.9993 14.5959C37.5334 14.2828 36.9861 14.1128 36.4248 14.1066C35.8818 14.1011 35.3512 14.269 34.9102 14.586C34.4693 14.9029 34.141 15.3523 33.9732 15.8688C33.9048 16.0801 33.7706 16.264 33.5902 16.3935C33.4098 16.5231 33.1927 16.5915 32.9706 16.5888H29.8908C28.377 16.5888 27.0738 17.658 26.6238 19.2726L26.4438 19.9152H46.9638L46.7262 19.2726Z" fill="#263238"/>
<path d="M46.836 20.5489H26.64C26.4697 20.5469 26.3064 20.4804 26.1832 20.3628C26.0599 20.2452 25.9858 20.0853 25.9758 19.9153C25.9714 19.8336 25.9837 19.7518 26.0121 19.6751C26.0404 19.5983 26.0842 19.5282 26.1407 19.469C26.1972 19.4098 26.2652 19.3628 26.3406 19.3309C26.4159 19.299 26.497 19.2829 26.5788 19.2835H46.7748C46.9448 19.2854 47.1078 19.3516 47.231 19.4688C47.3543 19.586 47.4285 19.7455 47.439 19.9153C47.4437 19.9971 47.4315 20.0791 47.4033 20.156C47.375 20.233 47.3313 20.3033 47.2748 20.3627C47.2183 20.4221 47.1501 20.4693 47.0747 20.5013C46.9992 20.5333 46.918 20.5495 46.836 20.5489Z" fill="#20B2AA"/>
<path opacity="0.2" d="M46.836 20.5489H26.64C26.4697 20.5469 26.3064 20.4804 26.1832 20.3628C26.0599 20.2452 25.9858 20.0853 25.9758 19.9153C25.9714 19.8336 25.9837 19.7518 26.0121 19.6751C26.0404 19.5983 26.0842 19.5282 26.1407 19.469C26.1972 19.4098 26.2652 19.3628 26.3406 19.3309C26.4159 19.299 26.497 19.2829 26.5788 19.2835H46.7748C46.9448 19.2854 47.1078 19.3516 47.231 19.4688C47.3543 19.586 47.4285 19.7455 47.439 19.9153C47.4437 19.9971 47.4315 20.0791 47.4033 20.156C47.375 20.233 47.3313 20.3033 47.2748 20.3627C47.2183 20.4221 47.1501 20.4693 47.0747 20.5013C46.9992 20.5333 46.918 20.5495 46.836 20.5489Z" fill="black"/>
<path d="M64.9656 73.8412H63.6462L63.5148 70.7866H64.8342L64.9656 73.8412Z" fill="#FFC3BD"/>
<path d="M72.8838 73.8412H71.5644L70.902 70.7866H72.2196L72.8838 73.8412Z" fill="#FFC3BD"/>
<path d="M71.4708 73.6882H72.9522C72.9783 73.6881 73.0037 73.697 73.024 73.7134C73.0444 73.7298 73.0584 73.7527 73.0638 73.7782L73.3248 74.9518C73.3307 74.9803 73.3302 75.0097 73.3232 75.038C73.3163 75.0662 73.3031 75.0925 73.2846 75.115C73.2661 75.1374 73.2428 75.1555 73.2164 75.1677C73.1901 75.18 73.1613 75.1862 73.1322 75.1858C72.6156 75.1768 72.3636 75.1462 71.712 75.1462C71.3106 75.1462 70.4844 75.1876 69.9318 75.1876C69.3792 75.1876 69.3054 74.6476 69.5322 74.5918C70.5492 74.3686 70.9308 74.0626 71.2566 73.7692C71.3158 73.7171 71.3919 73.6883 71.4708 73.6882Z" fill="#263238"/>
<path d="M63.6552 73.6882H65.0952C65.1214 73.6881 65.1467 73.697 65.1671 73.7134C65.1874 73.7298 65.2014 73.7527 65.2068 73.7782L65.4678 74.9518C65.4742 74.9793 65.4745 75.0079 65.4685 75.0355C65.4625 75.0631 65.4505 75.0891 65.4332 75.1115C65.416 75.1338 65.394 75.1521 65.3689 75.165C65.3438 75.1779 65.3161 75.185 65.2878 75.1858C64.7676 75.1768 64.017 75.1462 63.3636 75.1462C62.6004 75.1462 61.9416 75.1876 61.0452 75.1876C60.5052 75.1876 60.354 74.6476 60.5808 74.5918C61.6122 74.365 62.4546 74.3416 63.3456 73.7908C63.4378 73.7296 63.5447 73.6942 63.6552 73.6882Z" fill="#263238"/>
<path d="M66.24 25.7256C66.06 26.6904 65.9556 27.8856 66.6306 28.53C66.6306 28.53 66.2436 29.5092 64.4508 29.5092C62.8128 29.5092 63.6336 28.53 63.6336 28.53C64.7136 28.2726 64.6524 26.9424 64.4652 26.19L66.24 25.7256Z" fill="#FFC3BD"/>
<path d="M63.1188 28.6648C63.1548 28.4254 63.576 28.1464 64.0548 28.042C64.5336 27.9376 66.3732 27.7054 66.9348 27.9376C67.4964 28.1698 66.8376 28.8574 66.8376 28.8574L63.1188 28.6648Z" fill="#20B2AA"/>
<path opacity="0.4" d="M63.1188 28.6648C63.1548 28.4254 63.576 28.1464 64.0548 28.042C64.5336 27.9376 66.3732 27.7054 66.9348 27.9376C67.4964 28.1698 66.8376 28.8574 66.8376 28.8574L63.1188 28.6648Z" fill="white"/>
<path opacity="0.2" d="M63.5148 70.7886L63.5832 72.3618H64.9026L64.8342 70.7886H63.5148Z" fill="black"/>
<path opacity="0.2" d="M72.2214 70.7886H70.902L71.244 72.3618H72.5634L72.2214 70.7886Z" fill="black"/>
<path d="M69.363 29.718L67.7736 30.78C67.7736 30.78 70.056 34.839 69.8652 35.4888C69.6042 36.3744 69.2406 38.3094 68.7456 39.2922C68.8104 39.5046 69.1398 39.9888 69.3234 40.0716C70.5834 39.114 71.856 36.1116 71.8092 35.271C71.6994 33.3648 69.363 29.718 69.363 29.718Z" fill="#FFC3BD"/>
<path d="M68.7457 39.2957L67.4857 39.1985L68.1463 40.5863C68.1463 40.5863 69.2461 40.6349 69.4297 39.7943L68.7457 39.2957Z" fill="#B55B52"/>
<path d="M74.9736 46.0637L74.8674 46.2635L74.1546 47.6117L48.8502 34.2323L49.6674 32.6843L74.9736 46.0637Z" fill="#20B2AA"/>
<path d="M76.6098 42.9731L76.0878 43.9595L75.7927 44.5175L50.4865 31.1381L51.3036 29.5901L76.6098 42.9731Z" fill="#20B2AA"/>
<path d="M50.4948 31.1336L49.6758 32.6797L74.9716 46.0788L75.7906 44.5327L50.4948 31.1336Z" fill="#20B2AA"/>
<path opacity="0.2" d="M50.4948 31.1336L49.6758 32.6797L74.9716 46.0788L75.7906 44.5327L50.4948 31.1336Z" fill="black"/>
<path d="M47.7595 29.7952L47.0233 31.1884L48.8503 34.2322L51.3037 29.5918L47.7595 29.7952Z" fill="#20B2AA"/>
<path opacity="0.8" d="M47.7595 29.7952L47.0233 31.1884L48.8503 34.2322L51.3037 29.5918L47.7595 29.7952Z" fill="white"/>
<path d="M46.2402 29.8836L47.0232 31.1886L47.7594 29.7954L46.2402 29.8836Z" fill="#20B2AA"/>
<path d="M66.4722 39.8303L67.131 41.0579L68.1516 40.5863L67.491 39.1985L66.4722 39.8303Z" fill="#B55B52"/>
<path d="M68.985 28.8288C70.2324 29.0088 71.6616 33.3288 71.6616 33.3288L69.0408 34.8084C69.0408 34.8084 67.887 32.76 67.32 31.23C66.7224 29.6298 67.6476 28.6344 68.985 28.8288Z" fill="#263238"/>
<path opacity="0.2" d="M68.2596 30.3101C67.6926 29.7917 68.04 32.0111 68.31 33.4313C68.4486 33.7085 68.58 33.9605 68.6916 34.1711C69.3234 33.0551 69.0408 31.0247 68.2596 30.3101Z" fill="black"/>
<path d="M61.5979 28.897C61.5979 28.897 60.0409 32.8786 61.5187 40.2946H68.5801C68.6287 39.2146 67.9483 33.9298 68.9923 28.8286C68.2123 28.678 67.4235 28.5782 66.6307 28.5298C65.6325 28.4722 64.6318 28.4722 63.6337 28.5298C62.9465 28.5985 62.2657 28.7213 61.5979 28.897Z" fill="#263238"/>
<path d="M62.6832 30.7475L60.9048 30.0437C60.9048 30.0437 58.8564 34.2251 58.2048 34.4357C57.3282 34.7237 55.5282 35.5157 54.4374 35.6705C54.3006 35.8505 54.0882 36.3905 54.1224 36.5885C55.6254 37.0799 58.8241 36.4283 59.4865 35.9135C61.0057 34.7399 62.6832 30.7475 62.6832 30.7475Z" fill="#FFC3BD"/>
<path opacity="0.2" d="M62.883 30.2722C62.5896 29.5954 62.028 29.3128 61.443 29.4118C61.2162 30.2416 60.8328 32.065 60.903 34.8118L61.3224 35.0134C61.3224 35.0134 63.3852 31.4296 62.883 30.2722Z" fill="black"/>
<path d="M63.1638 29.7989C63.6066 30.9797 61.3638 34.4537 61.3638 34.4537L58.725 33.0137C59.1215 31.9332 59.6326 30.8983 60.2496 29.9267C61.1766 28.5425 62.676 28.5047 63.1638 29.7989Z" fill="#263238"/>
<path d="M54.5022 35.667L52.9326 36L53.7282 37.4526C54.1669 37.2344 54.5656 36.9434 54.9072 36.5922L54.5022 35.667Z" fill="#FFC3BD"/>
<path d="M52.191 36.3293L52.8174 37.1969L53.7282 37.4597L52.9326 36.0071L52.191 36.3293Z" fill="#FFC3BD"/>
<path d="M63.2484 24.3377C63.2484 24.4439 63.1818 24.5177 63.1116 24.5177C63.0414 24.5177 62.991 24.4241 62.9982 24.3179C63.0054 24.2117 63.0648 24.1379 63.135 24.1379C63.2052 24.1379 63.2556 24.2315 63.2484 24.3377Z" fill="#263238"/>
<path d="M63.342 24.3467C63.1967 24.6638 63.0083 24.9594 62.7822 25.2251C62.8517 25.2813 62.9327 25.3216 63.0195 25.343C63.1063 25.3645 63.1967 25.3666 63.2844 25.3493L63.342 24.3467Z" fill="#ED847E"/>
<path d="M63.1134 23.9705C63.1039 23.9685 63.0947 23.9649 63.0864 23.9597C63.0794 23.9553 63.0734 23.9496 63.0687 23.9428C63.064 23.9361 63.0607 23.9284 63.059 23.9204C63.0573 23.9123 63.0573 23.904 63.0589 23.8959C63.0605 23.8878 63.0638 23.8801 63.0684 23.8733C63.1206 23.789 63.192 23.7183 63.2768 23.667C63.3616 23.6157 63.4574 23.5852 63.5562 23.5781C63.5727 23.579 63.5882 23.5859 63.5998 23.5975C63.6114 23.6092 63.6184 23.6247 63.6192 23.6411C63.6192 23.6578 63.6126 23.6739 63.6008 23.6857C63.589 23.6975 63.5729 23.7041 63.5562 23.7041C63.4794 23.7113 63.4054 23.7363 63.3401 23.7773C63.2748 23.8182 63.2199 23.8739 63.18 23.9399C63.1735 23.9513 63.1636 23.9604 63.1516 23.9659C63.1397 23.9714 63.1263 23.973 63.1134 23.9705Z" fill="#263238"/>
<path d="M66.8268 24.246C66.672 25.5456 66.6468 26.3124 65.9502 26.946C64.9008 27.8964 63.3258 27.207 63.0882 25.8858C62.8758 24.6978 63.1656 22.7736 64.4724 22.3272C64.76 22.2277 65.0682 22.2033 65.3678 22.2564C65.6674 22.3095 65.9485 22.4382 66.1844 22.6305C66.4202 22.8227 66.6031 23.072 66.7155 23.3547C66.8279 23.6375 66.8663 23.9442 66.8268 24.246Z" fill="#FFC3BD"/>
<path d="M64.2078 24.4997C63.7524 24.5897 63.0252 23.5781 63.6192 22.7195C63.3186 22.5701 62.3376 23.1605 61.9686 22.6097C61.5996 22.0589 62.6238 21.7655 62.4276 21.2993C63.1224 21.4415 61.9776 22.3091 62.6382 22.2245C63.2988 22.1399 64.0602 20.9195 64.7982 21.4199C66.1032 22.2965 67.8816 20.8349 67.1562 22.6655C68.0454 22.4855 68.6538 23.5367 67.806 24.2657C66.1158 25.7147 67.1562 25.9055 66.0852 25.9793C65.5488 26.0189 64.3014 25.3799 64.2078 24.4997Z" fill="#263238"/>
<path d="M64.8828 24.8398C64.8205 24.9697 64.7328 25.0859 64.6249 25.1814C64.517 25.2769 64.3911 25.3499 64.2546 25.396C63.8946 25.5202 63.6876 25.198 63.7722 24.8434C63.8478 24.523 64.1322 24.073 64.5048 24.1054C64.5866 24.1134 64.6651 24.1418 64.733 24.1879C64.801 24.2341 64.8564 24.2965 64.894 24.3696C64.9316 24.4427 64.9502 24.524 64.9483 24.6061C64.9463 24.6883 64.9238 24.7686 64.8828 24.8398Z" fill="#FFC3BD"/>
<path d="M64.0206 40.2947C64.0206 40.2947 65.5182 50.3747 66.339 54.1547C67.239 58.2947 70.6284 72.0629 70.6284 72.0629H73.044C73.044 72.0629 70.8102 58.6241 70.2954 54.5291C69.7392 50.0867 68.5728 40.3001 68.5728 40.3001L64.0206 40.2947Z" fill="#20B2AA"/>
<path opacity="0.2" d="M64.0206 40.2947C64.0206 40.2947 65.5182 50.3747 66.339 54.1547C67.239 58.2947 70.6284 72.0629 70.6284 72.0629H73.044C73.044 72.0629 70.8102 58.6241 70.2954 54.5291C69.7392 50.0867 68.5728 40.3001 68.5728 40.3001L64.0206 40.2947Z" fill="white"/>
<path opacity="0.2" d="M65.799 43.8191C65.6874 43.6607 65.5866 43.6067 65.493 43.6391H65.4732C65.4519 43.6484 65.4319 43.6605 65.4138 43.6751C65.3947 43.6907 65.3772 43.7082 65.3616 43.7273L65.3328 43.7633L65.295 43.8227C65.2637 43.8751 65.2366 43.9299 65.214 43.9865C65.1996 44.0207 65.1852 44.0567 65.1726 44.0927C65.16 44.1287 65.1402 44.1845 65.1258 44.2349C65.1114 44.2853 65.0844 44.3717 65.0646 44.4455C65.0646 44.4653 65.0556 44.4833 65.0502 44.5031C65.0448 44.5229 65.0304 44.5859 65.0214 44.6273C65.0124 44.6687 65.0052 44.6993 64.998 44.7353C64.9818 44.8055 64.9674 44.8793 64.953 44.9549C64.9386 45.0305 64.9224 45.1187 64.908 45.2033C64.908 45.2321 64.899 45.2609 64.8936 45.2915C64.8756 45.3995 64.8594 45.5093 64.8432 45.6227C65.2428 48.1319 65.718 51.0083 66.1032 53.0153C66.1212 52.9505 66.141 52.8821 66.1572 52.8083C66.2358 52.4735 66.2959 52.1346 66.3372 51.7931C66.6774 49.2065 66.5208 44.8505 65.799 43.8191Z" fill="black"/>
<path d="M61.5186 40.2947C61.5186 40.2947 61.3386 50.1551 61.4808 54.1781C61.6302 58.3613 63.0918 72.0575 63.0918 72.0575H65.3256C65.3256 72.0575 65.4066 58.6043 65.5056 54.4967C65.6136 50.0183 66.1536 40.2947 66.1536 40.2947H61.5186Z" fill="#20B2AA"/>
<path opacity="0.2" d="M61.5186 40.2947C61.5186 40.2947 61.3386 50.1551 61.4808 54.1781C61.6302 58.3613 63.0918 72.0575 63.0918 72.0575H65.3256C65.3256 72.0575 65.4066 58.6043 65.5056 54.4967C65.6136 50.0183 66.1536 40.2947 66.1536 40.2947H61.5186Z" fill="white"/>
<path d="M65.4732 71.3734C65.4822 71.3734 65.4732 72.1025 65.4732 72.1025H62.8974L62.7894 71.2834L65.4732 71.3734Z" fill="#263238"/>
<path d="M73.044 71.4276C73.0548 71.4276 73.1646 72.1026 73.1646 72.1026H70.5096L70.2756 71.3286L73.044 71.4276Z" fill="#263238"/>
<path d="M71.0352 73.9187C70.9455 73.926 70.856 73.9025 70.7814 73.8521C70.7572 73.8325 70.7385 73.8069 70.7272 73.7779C70.7158 73.7489 70.7122 73.7174 70.7166 73.6865C70.7168 73.6686 70.7218 73.6509 70.7309 73.6355C70.7401 73.62 70.7532 73.6072 70.7688 73.5983C70.9146 73.5245 71.3412 73.7783 71.3898 73.8143C71.3948 73.818 71.3986 73.823 71.4008 73.8287C71.4031 73.8345 71.4036 73.8407 71.4024 73.8467C71.4015 73.8528 71.3988 73.8584 71.3946 73.8629C71.3904 73.8674 71.385 73.8706 71.379 73.8719C71.2665 73.9001 71.1512 73.9158 71.0352 73.9187ZM70.839 73.6469C70.8254 73.6439 70.8113 73.6439 70.7976 73.6469C70.7914 73.6506 70.7862 73.6558 70.7827 73.6622C70.7792 73.6685 70.7775 73.6757 70.7778 73.6829C70.7751 73.7039 70.7776 73.7253 70.7851 73.7451C70.7927 73.7649 70.805 73.7825 70.821 73.7963C70.968 73.8646 71.1356 73.8736 71.289 73.8215C71.1517 73.7349 70.9989 73.6756 70.839 73.6469Z" fill="#20B2AA"/>
<path d="M71.3718 73.8737C71.3672 73.8752 71.3621 73.8752 71.3574 73.8737C71.2206 73.7999 70.9578 73.5137 70.9848 73.3643C70.9894 73.3414 71.0018 73.3209 71.0198 73.3061C71.0379 73.2913 71.0605 73.2833 71.0838 73.2833C71.1076 73.2797 71.1318 73.2814 71.1548 73.2883C71.1779 73.2951 71.1991 73.307 71.217 73.3229C71.37 73.4471 71.397 73.8287 71.397 73.8449C71.3969 73.8505 71.3956 73.8559 71.3931 73.8609C71.3906 73.8659 71.387 73.8703 71.3826 73.8737C71.3791 73.8744 71.3754 73.8744 71.3718 73.8737ZM71.1054 73.3337H71.1C71.0586 73.3337 71.055 73.3571 71.0532 73.3661C71.037 73.4525 71.2044 73.6703 71.3412 73.7729C71.3318 73.6229 71.2772 73.4792 71.1846 73.3607C71.1732 73.3508 71.1596 73.3436 71.145 73.3395C71.1303 73.3355 71.115 73.3347 71.1 73.3373L71.1054 73.3337Z" fill="#20B2AA"/>
<path d="M63.1062 73.9187C62.9933 73.9292 62.8802 73.9006 62.7858 73.8377C62.7651 73.8188 62.7491 73.7952 62.7391 73.769C62.7291 73.7427 62.7254 73.7145 62.7282 73.6865C62.7283 73.6694 62.733 73.6527 62.7419 73.6381C62.7508 73.6235 62.7635 73.6116 62.7786 73.6037C62.9388 73.5137 63.4698 73.7837 63.5292 73.8143C63.5352 73.8171 63.5401 73.8218 63.5431 73.8277C63.546 73.8336 63.5469 73.8403 63.5454 73.8467C63.5447 73.8531 63.5418 73.8591 63.5372 73.8637C63.5326 73.8683 63.5267 73.8712 63.5202 73.8719C63.3841 73.901 63.2454 73.9167 63.1062 73.9187ZM62.8668 73.6469C62.8471 73.6461 62.8274 73.6498 62.8092 73.6577C62.8032 73.6612 62.7982 73.6662 62.7948 73.6722C62.7913 73.6782 62.7894 73.685 62.7894 73.6919C62.7869 73.7103 62.789 73.729 62.7956 73.7463C62.8022 73.7636 62.8131 73.779 62.8272 73.7909C62.9082 73.8629 63.126 73.8755 63.4176 73.8269C63.2454 73.7365 63.0592 73.6756 62.8668 73.6469Z" fill="#20B2AA"/>
<path d="M63.5148 73.8737H63.5022C63.342 73.8017 63.027 73.5137 63.0522 73.3679C63.0522 73.3337 63.0828 73.2887 63.1674 73.2815C63.1994 73.2767 63.232 73.2789 63.2631 73.288C63.2942 73.297 63.3229 73.3126 63.3474 73.3337C63.5148 73.4723 63.549 73.8269 63.5508 73.8431C63.5516 73.8483 63.5508 73.8537 63.5486 73.8585C63.5463 73.8633 63.5427 73.8673 63.5382 73.8701C63.5311 73.8742 63.5228 73.8755 63.5148 73.8737ZM63.1926 73.3337H63.18C63.1242 73.3337 63.1206 73.3607 63.1188 73.3697C63.1044 73.4579 63.3186 73.6829 63.4788 73.7801C63.4633 73.6289 63.4002 73.4865 63.2988 73.3733C63.2681 73.3503 63.2309 73.3377 63.1926 73.3373V73.3337Z" fill="#20B2AA"/>
</svg>
