<svg width="400" height="400" viewBox="0 0 400 400" fill="none" xmlns="http://www.w3.org/2000/svg">
<path d="M203 144.512C180.448 111.856 148.264 41.312 96.5439 86.208C45.2079 130.824 83.7039 209.88 116.376 236.608C149.4 263.56 255.76 288 270.576 219.88C280.8 173.024 227.92 180.584 203 144.512Z" fill="#FCA43C"/>
<path opacity="0.9" d="M203 144.512C180.448 111.856 148.264 41.312 96.5439 86.208C45.2079 130.824 83.7039 209.88 116.376 236.608C149.4 263.56 255.76 288 270.576 219.88C280.8 173.024 227.92 180.584 203 144.512Z" fill="white"/>
<path d="M200 342.048C285.666 342.048 355.112 337.994 355.112 332.992C355.112 327.991 285.666 323.936 200 323.936C114.334 323.936 44.8879 327.991 44.8879 332.992C44.8879 337.994 114.334 342.048 200 342.048Z" fill="#F5F5F5"/>
<path d="M272.568 276.976C286.565 276.976 297.912 265.629 297.912 251.632C297.912 237.635 286.565 226.288 272.568 226.288C258.571 226.288 247.224 237.635 247.224 251.632C247.224 265.629 258.571 276.976 272.568 276.976Z" fill="white"/>
<path d="M272.568 277.288C267.493 277.29 262.532 275.786 258.312 272.968C254.092 270.15 250.802 266.144 248.859 261.456C246.916 256.768 246.407 251.609 247.396 246.632C248.385 241.654 250.828 237.082 254.416 233.493C258.003 229.904 262.575 227.46 267.552 226.47C272.529 225.479 277.688 225.987 282.376 227.928C287.065 229.87 291.072 233.158 293.892 237.377C296.711 241.597 298.216 246.557 298.216 251.632C298.21 258.433 295.506 264.954 290.697 269.764C285.889 274.573 279.369 277.279 272.568 277.288ZM272.568 226.608C267.617 226.608 262.777 228.076 258.66 230.827C254.544 233.578 251.335 237.488 249.441 242.062C247.546 246.637 247.051 251.67 248.018 256.526C248.984 261.382 251.369 265.843 254.871 269.343C258.372 272.844 262.833 275.227 267.689 276.192C272.546 277.157 277.579 276.66 282.153 274.764C286.727 272.868 290.636 269.659 293.385 265.541C296.135 261.424 297.602 256.583 297.6 251.632C297.594 244.996 294.954 238.633 290.261 233.942C285.568 229.25 279.204 226.612 272.568 226.608Z" fill="#FCA43C"/>
<path d="M276.648 237.264H268.488V266H276.648V237.264Z" fill="#FCA43C"/>
<path d="M286.936 255.72V247.56H258.2V255.72H286.936Z" fill="#FCA43C"/>
<path d="M239.088 304.96H155.592C154.231 304.975 152.883 304.707 151.631 304.173C150.38 303.638 149.254 302.85 148.324 301.856C147.394 300.863 146.681 299.687 146.23 298.404C145.779 297.12 145.6 295.757 145.704 294.4L159.2 94.4C159.436 91.5437 160.725 88.877 162.817 86.9181C164.909 84.9591 167.654 83.8478 170.52 83.8H254.032C255.396 83.7844 256.749 84.0535 258.003 84.5903C259.257 85.127 260.385 85.9195 261.316 86.9171C262.247 87.9147 262.959 89.0954 263.407 90.3839C263.856 91.6723 264.03 93.0402 263.92 94.4L250.4 294.4C250.157 297.248 248.865 299.905 246.775 301.856C244.686 303.807 241.946 304.913 239.088 304.96Z" fill="#263238"/>
<path d="M257.6 165.248H255.496C255.115 165.253 254.737 165.178 254.387 165.028C254.037 164.878 253.722 164.657 253.462 164.378C253.202 164.099 253.003 163.769 252.878 163.41C252.753 163.05 252.705 162.668 252.736 162.288L255.32 124.056C255.38 123.256 255.738 122.508 256.323 121.96C256.909 121.412 257.678 121.104 258.48 121.096H260.584C260.965 121.091 261.343 121.166 261.693 121.316C262.043 121.466 262.358 121.687 262.618 121.966C262.878 122.245 263.077 122.574 263.202 122.934C263.327 123.294 263.375 123.676 263.344 124.056L260.76 162.288C260.7 163.087 260.342 163.835 259.757 164.384C259.171 164.932 258.402 165.24 257.6 165.248Z" fill="#263238"/>
<path d="M157.984 139.744H155.888C155.578 139.748 155.27 139.688 154.985 139.567C154.699 139.446 154.442 139.267 154.229 139.041C154.016 138.816 153.853 138.548 153.748 138.256C153.644 137.964 153.602 137.653 153.624 137.344L154.56 123.536C154.619 122.888 154.916 122.284 155.393 121.841C155.87 121.398 156.493 121.147 157.144 121.136H159.248C159.557 121.134 159.863 121.196 160.148 121.318C160.432 121.44 160.688 121.619 160.899 121.844C161.111 122.069 161.274 122.336 161.378 122.627C161.482 122.918 161.525 123.227 161.504 123.536L160.568 137.344C160.511 137.993 160.215 138.597 159.738 139.041C159.26 139.484 158.635 139.735 157.984 139.744Z" fill="#FCA43C"/>
<path d="M156.32 164.4H154.216C153.907 164.403 153.6 164.342 153.315 164.22C153.031 164.099 152.774 163.92 152.562 163.694C152.35 163.469 152.187 163.202 152.084 162.91C151.98 162.619 151.938 162.309 151.96 162L152.896 148.192C152.955 147.544 153.252 146.94 153.729 146.497C154.205 146.054 154.829 145.803 155.48 145.792H157.6C157.909 145.79 158.215 145.852 158.499 145.974C158.784 146.096 159.039 146.275 159.251 146.5C159.463 146.725 159.626 146.992 159.73 147.283C159.834 147.574 159.877 147.883 159.856 148.192L158.92 162C158.862 162.652 158.564 163.258 158.084 163.702C157.603 164.146 156.974 164.394 156.32 164.4Z" fill="#FCA43C"/>
<path d="M237.32 304.96H153.824C152.464 304.975 151.115 304.707 149.864 304.173C148.612 303.638 147.486 302.849 146.556 301.856C145.626 300.863 144.913 299.687 144.462 298.404C144.011 297.12 143.832 295.756 143.936 294.4L157.44 94.3999C157.684 91.5426 158.982 88.8782 161.082 86.9249C163.182 84.9717 165.933 83.8692 168.8 83.8319H252.264C253.625 83.8167 254.975 84.085 256.227 84.6198C257.479 85.1546 258.605 85.9442 259.536 86.9382C260.466 87.9323 261.179 89.1091 261.629 90.3937C262.08 91.6783 262.258 93.0427 262.152 94.3999L248.64 294.4C248.397 297.25 247.104 299.908 245.013 301.859C242.921 303.81 240.18 304.915 237.32 304.96Z" fill="#FCA43C"/>
<path opacity="0.3" d="M144.816 292.16L158 96.9919H261.248L248.064 292.16H144.816Z" fill="white"/>
<path opacity="0.1" d="M185.576 292.16L222.424 96.9919H245.552L208.704 292.16H185.576Z" fill="white"/>
<path opacity="0.1" d="M168.104 292.16L204.952 96.9919H216.672L179.824 292.16H168.104Z" fill="white"/>
<path d="M200.112 88.7359H220.248C220.416 88.733 220.583 88.7655 220.738 88.8312C220.892 88.8969 221.032 88.9944 221.146 89.1173C221.261 89.2403 221.348 89.3859 221.403 89.5448C221.458 89.7038 221.479 89.8724 221.464 90.0399C221.436 90.3924 221.278 90.7219 221.021 90.9644C220.764 91.2069 220.426 91.345 220.072 91.3519H199.936C199.768 91.3536 199.601 91.3201 199.446 91.2535C199.291 91.1869 199.152 91.0887 199.038 90.9651C198.923 90.8416 198.836 90.6954 198.781 90.5361C198.726 90.3767 198.706 90.2077 198.72 90.0399C198.748 89.6882 198.906 89.3596 199.164 89.1184C199.421 88.8772 199.759 88.7408 200.112 88.7359Z" fill="white"/>
<path d="M195.92 324.2L188.864 324.872L186.32 308.592L193.376 307.912L195.92 324.2Z" fill="#FFB573"/>
<path d="M188.056 321.424L195.448 319.128C195.575 319.084 195.715 319.091 195.838 319.147C195.96 319.204 196.056 319.306 196.104 319.432L198.504 325.296C198.564 325.453 198.59 325.621 198.582 325.789C198.573 325.957 198.53 326.121 198.455 326.271C198.38 326.422 198.274 326.555 198.145 326.662C198.016 326.77 197.866 326.849 197.704 326.896C195.032 327.696 192.488 327.88 189.264 329.296C185.496 330.896 183.92 333.04 179.864 333.04C176.96 333.04 176.304 330.376 177.536 330.008C183.136 328.312 182.4 326.92 186.464 322.544C186.887 322.037 187.436 321.65 188.056 321.424Z" fill="#263238"/>
<path opacity="0.2" d="M186.32 308.592L187.632 316.992L194.696 316.312L193.384 307.912L186.32 308.592Z" fill="black"/>
<path d="M191.424 102.88C182.168 101.792 172.96 102.52 163.72 104.312C162.18 104.611 160.776 105.392 159.71 106.543C158.644 107.694 157.972 109.154 157.792 110.712C156.792 119.56 155.648 139.392 160.112 168.976L197.936 165.776C198.008 160.408 194.192 135.952 197.344 110.576C197.473 109.68 197.421 108.768 197.192 107.892C196.962 107.017 196.56 106.196 196.008 105.479C195.456 104.761 194.766 104.162 193.979 103.715C193.192 103.269 192.323 102.985 191.424 102.88Z" fill="white"/>
<path d="M169.4 110.464L170.752 113.168C170.815 113.304 170.916 113.42 171.041 113.502C171.167 113.584 171.314 113.629 171.464 113.632L172.928 113.712C173.189 113.723 173.446 113.644 173.656 113.488L176.176 111.608L173.064 109.344L169.4 110.464Z" fill="#263238"/>
<path d="M172.976 112.936C172.443 112.689 171.838 112.641 171.272 112.8C170.08 117 168.776 129.056 168.64 134.4C172.256 144.936 173.44 146 173.44 146L175.272 133.32C175.272 133.32 173.216 120.352 172.976 112.936Z" fill="#263238"/>
<path d="M183.416 84.64C182.552 89.856 181.816 99.384 185.56 102.752C182.816 105.632 179.224 108.968 173.064 109.344C166.904 109.72 167.856 105.456 169.416 103.176C175.168 101.64 174.888 97.352 173.76 93.344L183.416 84.64Z" fill="#FFB573"/>
<path d="M187.128 102.296C186.692 102.108 186.239 101.961 185.776 101.856C185.663 101.826 185.543 101.834 185.434 101.879C185.326 101.924 185.235 102.003 185.176 102.104C184.584 103.112 182.776 107.616 173.064 109.344C174.664 110.288 176.784 113.216 177.696 114.624C180.608 113.112 188.184 108.592 187.464 102.744C187.449 102.647 187.411 102.556 187.352 102.478C187.294 102.4 187.217 102.337 187.128 102.296Z" fill="#F5F5F5"/>
<path d="M169.472 103.416C169.492 103.325 169.49 103.23 169.464 103.14C169.439 103.051 169.392 102.969 169.326 102.902C169.261 102.835 169.18 102.786 169.091 102.758C169.002 102.731 168.907 102.726 168.816 102.744C168.48 102.809 168.148 102.897 167.824 103.008C167.749 103.037 167.679 103.078 167.616 103.128C166.872 103.816 162.816 109.672 166.616 114.408C167.416 113.12 170.176 110.2 173.064 109.344C170.328 108.112 168.984 105.816 169.472 103.416Z" fill="#F5F5F5"/>
<path opacity="0.2" d="M179.48 88.1919L173.768 93.3439C174.043 94.2744 174.236 95.2275 174.344 96.1919C176.552 95.8159 179.52 93.3119 179.68 90.9919C179.788 90.0542 179.72 89.1047 179.48 88.1919Z" fill="black"/>
<path d="M171.848 68.8719C166.92 70.7999 166.6 74.8479 167.048 79.2719C167.496 83.6959 172.312 80.768 173.384 78C174.456 75.232 178.672 66.1999 171.848 68.8719Z" fill="#263238"/>
<path d="M187.568 77.696C186.2 84.664 185.744 88.8 181.76 92.008C175.752 96.808 167.616 92.664 166.896 85.48C166.248 79.008 168.592 68.68 175.768 66.664C177.333 66.2032 178.991 66.1587 180.578 66.535C182.166 66.9112 183.628 67.6951 184.819 68.8093C186.011 69.9234 186.891 71.3292 187.373 72.8877C187.855 74.4462 187.923 76.1036 187.568 77.696Z" fill="#FFB573"/>
<path d="M187.28 83.4639C181.416 83.7759 182.656 80.4479 183.72 78.5359C184.784 76.6239 182.616 73.4639 184.032 71.8239C181.504 72.8319 178.84 71.9999 175.456 69.6479C172.832 67.8159 169.544 75.1359 166.344 71.4639C163.32 67.9999 166.128 62.7759 173.392 61.9359C180.656 61.0959 181.976 66.2319 186.744 65.7759C191.512 65.3199 189.856 69.2479 188.92 70.0479C192.92 70.3119 195.104 74.1359 187.28 83.4639Z" fill="#263238"/>
<path d="M188 70.5359C188.917 70.0327 189.684 69.2935 190.22 68.3947C190.756 67.496 191.042 66.4703 191.048 65.424C192.632 68.2 192.464 71.3519 188 70.5359Z" fill="#263238"/>
<path d="M172.8 85.136C173.438 85.2463 174.091 85.2267 174.72 85.0782C175.35 84.9297 175.943 84.6555 176.464 84.272C176.48 84.2571 176.492 84.2391 176.501 84.2191C176.509 84.1992 176.514 84.1777 176.514 84.156C176.514 84.1343 176.509 84.1128 176.501 84.0929C176.492 84.0729 176.48 84.055 176.464 84.04C176.433 84.0102 176.391 83.9935 176.348 83.9935C176.305 83.9935 176.263 84.0102 176.232 84.04C175.649 84.4536 174.977 84.7259 174.271 84.8356C173.564 84.9453 172.841 84.8893 172.16 84.672C172.117 84.6612 172.071 84.6666 172.031 84.6872C171.991 84.7078 171.96 84.7422 171.944 84.784C171.932 84.8264 171.936 84.8721 171.957 84.911C171.978 84.95 172.014 84.9791 172.056 84.992C172.299 85.0622 172.548 85.1104 172.8 85.136Z" fill="#263238"/>
<path d="M188.984 85.5999C187.889 87.0116 186.283 87.9366 184.512 88.1759C182.184 88.4799 181.408 86.3119 182.384 84.2879C183.272 82.4639 185.584 80.1119 187.728 80.7439C189.872 81.3759 190.328 83.8399 188.984 85.5999Z" fill="#FFB573"/>
<path d="M186.672 237.096C186.952 216.208 189.624 166.456 189.624 166.456L160.136 168.944C160.136 168.944 166 220.216 169.536 241.528C173.216 263.68 184.504 315.576 184.504 315.576L196.504 314.552C196.504 314.552 192.12 253.248 186.672 237.096Z" fill="#263238"/>
<path d="M183.784 315.904L198.016 314.696L197.456 310.104L182.624 311.096L183.784 315.904Z" fill="#FCA43C"/>
<path d="M177.056 78.1119C176.984 78.6799 176.616 79.1119 176.256 79.0719C175.896 79.0319 175.648 78.5359 175.728 77.9599C175.808 77.3839 176.168 76.9599 176.528 76.9999C176.888 77.0399 177.136 77.5439 177.056 78.1119Z" fill="#263238"/>
<path d="M170.528 77.6C170.456 78.176 170.088 78.6 169.728 78.56C169.368 78.52 169.12 78.024 169.2 77.456C169.28 76.888 169.64 76.456 170 76.496C170.36 76.536 170.608 77 170.528 77.6Z" fill="#263238"/>
<path d="M172.368 78.272C171.404 79.7524 170.247 81.0976 168.928 82.272C169.776 83.16 171.528 82.92 171.528 82.92L172.368 78.272Z" fill="#ED893E"/>
<path opacity="0.4" d="M166.4 77.7439C166.28 78.6559 167.2 79.4159 168.472 79.5759C169.744 79.7359 170.92 79.0399 171.032 78.1279" fill="#FCA43C"/>
<path opacity="0.4" d="M173.96 78.5919C173.784 79.4959 174.672 80.3119 175.92 80.5519C177.168 80.7919 178.392 80.1519 178.56 79.2559" fill="#FCA43C"/>
<path d="M176.416 80.8C176.272 80.8079 176.128 80.8079 175.984 80.8C175.369 80.7264 174.791 80.4668 174.328 80.056C174.126 79.8831 173.968 79.6644 173.868 79.418C173.768 79.1716 173.728 78.9048 173.752 78.64C173.346 78.4632 172.913 78.355 172.472 78.32C172.028 78.2092 171.564 78.2092 171.12 78.32C171.008 79.296 169.792 79.968 168.432 79.8C167.817 79.7327 167.238 79.4755 166.776 79.064C166.575 78.8903 166.418 78.6714 166.318 78.4253C166.218 78.1791 166.177 77.9127 166.2 77.6479L166.584 77.696C166.568 77.9005 166.601 78.106 166.68 78.2952C166.759 78.4845 166.883 78.652 167.04 78.784C167.443 79.1387 167.946 79.3595 168.48 79.4159C169.632 79.5679 170.656 79.032 170.76 78.232C170.816 77.784 171.744 77.816 172.512 77.912C173.28 78.008 174.192 78.224 174.112 78.664C174.095 78.8686 174.128 79.0743 174.207 79.2636C174.287 79.453 174.41 79.6205 174.568 79.752C174.976 80.1019 175.477 80.3248 176.011 80.393C176.544 80.4613 177.085 80.3719 177.568 80.1359C177.754 80.0492 177.917 79.9189 178.042 79.7559C178.168 79.593 178.252 79.4023 178.288 79.2V79.008L188.16 80.2799L188.112 80.664L178.608 79.44C178.539 79.6626 178.425 79.8689 178.274 80.0464C178.123 80.2238 177.937 80.3686 177.728 80.4719C177.324 80.6859 176.874 80.7985 176.416 80.8Z" fill="#263238"/>
<path d="M179.568 75.6C179.625 75.6002 179.681 75.5835 179.728 75.552C179.806 75.5068 179.863 75.4329 179.887 75.3461C179.911 75.2594 179.9 75.1667 179.856 75.088C179.608 74.6227 179.249 74.2259 178.811 73.9328C178.373 73.6397 177.869 73.4594 177.344 73.408C177.254 73.4036 177.166 73.4347 177.099 73.4945C177.031 73.5543 176.99 73.6382 176.984 73.728C176.98 73.8158 177.01 73.9019 177.068 73.9677C177.127 74.0335 177.208 74.0738 177.296 74.08C177.711 74.1287 178.108 74.2781 178.453 74.5151C178.797 74.7521 179.078 75.0696 179.272 75.44C179.302 75.4909 179.346 75.5327 179.398 75.5608C179.45 75.589 179.509 75.6026 179.568 75.6Z" fill="#263238"/>
<path d="M168.416 74.696C168.471 74.7014 168.527 74.6933 168.579 74.6724C168.63 74.6515 168.676 74.6184 168.712 74.576C168.971 74.2372 169.305 73.9638 169.689 73.7776C170.072 73.5915 170.494 73.4977 170.92 73.504C170.964 73.5084 171.009 73.504 171.051 73.4911C171.094 73.4782 171.133 73.457 171.167 73.4287C171.202 73.4004 171.23 73.3657 171.251 73.3264C171.271 73.2872 171.284 73.2442 171.288 73.2C171.294 73.1569 171.291 73.1131 171.279 73.0711C171.268 73.0292 171.248 72.99 171.221 72.9557C171.194 72.9215 171.161 72.8929 171.123 72.8717C171.085 72.8504 171.043 72.8369 171 72.832C170.463 72.8179 169.929 72.93 169.443 73.1592C168.957 73.3885 168.531 73.7285 168.2 74.152C168.143 74.22 168.115 74.3078 168.123 74.3962C168.13 74.4847 168.172 74.5665 168.24 74.624C168.292 74.6615 168.353 74.6862 168.416 74.696Z" fill="#263238"/>
<path d="M211.24 233.728C205.12 202.272 203.744 177.672 197.936 165.728L169.368 168.928C169.368 168.928 186.384 215.8 194.696 235.808C203.328 256.608 220.368 292.144 220.368 292.144H234.64C234.64 292.144 221.32 248.056 211.24 233.728Z" fill="#263238"/>
<path d="M120.688 114.648L117.6 112.696C117.099 112.373 116.501 112.234 115.909 112.303C115.316 112.371 114.766 112.643 114.352 113.072L112.256 115.28C112.03 115.518 111.856 115.8 111.743 116.109C111.631 116.417 111.583 116.745 111.603 117.073C111.622 117.401 111.709 117.721 111.857 118.014C112.005 118.307 112.212 118.566 112.464 118.776L113.96 120.056C115.261 121.159 116.779 121.976 118.416 122.456L122.936 123.792L125.904 120.592C126.808 117.256 120.688 114.648 120.688 114.648Z" fill="#FFB573"/>
<path d="M166.4 113.152C165.28 115.888 164.184 118.432 162.992 121.032C161.8 123.632 160.592 126.2 159.256 128.752C157.92 131.304 156.496 133.84 154.88 136.384C154.08 137.648 153.192 138.912 152.184 140.184C151.1 141.587 149.866 142.866 148.504 144C147.605 144.735 146.612 145.348 145.552 145.824C145.216 145.952 144.904 146.08 144.536 146.192L143.976 146.344C143.694 146.413 143.408 146.464 143.12 146.496C142.145 146.606 141.158 146.535 140.208 146.288C139.021 145.956 137.893 145.44 136.864 144.76C136.094 144.279 135.359 143.745 134.664 143.16C132.355 141.144 130.227 138.93 128.304 136.544C126.44 134.304 124.68 132.056 122.992 129.76C121.304 127.464 119.68 125.208 118.016 122.8L126.864 117.088C129.656 121.595 132.746 125.912 136.112 130.008C137.66 131.905 139.364 133.669 141.208 135.28C141.565 135.572 141.942 135.84 142.336 136.08C142.632 136.28 142.928 136.36 142.72 136.288C142.439 136.211 142.144 136.194 141.856 136.24C141.74 136.251 141.625 136.272 141.512 136.304H141.448C141.408 136.304 141.408 136.304 141.4 136.304C141.582 136.185 141.756 136.054 141.92 135.912C142.65 135.249 143.312 134.515 143.896 133.72C144.576 132.808 145.256 131.784 145.904 130.72C147.229 128.508 148.436 126.227 149.52 123.888C150.64 121.488 151.72 119.088 152.72 116.592C153.72 114.096 154.672 111.56 155.48 109.136L166.4 113.152Z" fill="#FCA43C"/>
<g opacity="0.6">
<path d="M166.4 113.152C165.28 115.888 164.184 118.432 162.992 121.032C161.8 123.632 160.592 126.2 159.256 128.752C157.92 131.304 156.496 133.84 154.88 136.384C154.08 137.648 153.192 138.912 152.184 140.184C151.1 141.587 149.866 142.866 148.504 144C147.605 144.735 146.612 145.348 145.552 145.824C145.216 145.952 144.904 146.08 144.536 146.192L143.976 146.344C143.694 146.413 143.408 146.464 143.12 146.496C142.145 146.606 141.158 146.535 140.208 146.288C139.021 145.956 137.893 145.44 136.864 144.76C136.094 144.279 135.359 143.745 134.664 143.16C132.355 141.144 130.227 138.93 128.304 136.544C126.44 134.304 124.68 132.056 122.992 129.76C121.304 127.464 119.68 125.208 118.016 122.8L126.864 117.088C129.656 121.595 132.746 125.912 136.112 130.008C137.66 131.905 139.364 133.669 141.208 135.28C141.565 135.572 141.942 135.84 142.336 136.08C142.632 136.28 142.928 136.36 142.72 136.288C142.439 136.211 142.144 136.194 141.856 136.24C141.74 136.251 141.625 136.272 141.512 136.304H141.448C141.408 136.304 141.408 136.304 141.4 136.304C141.582 136.185 141.756 136.054 141.92 135.912C142.65 135.249 143.312 134.515 143.896 133.72C144.576 132.808 145.256 131.784 145.904 130.72C147.229 128.508 148.436 126.227 149.52 123.888C150.64 121.488 151.72 119.088 152.72 116.592C153.72 114.096 154.672 111.56 155.48 109.136L166.4 113.152Z" fill="white"/>
</g>
<path d="M187.344 100.872C184.344 106.472 173.664 127.808 172.368 140.976C167.64 128.976 168.672 102.432 168.672 102.432C165.302 102.76 161.997 103.569 158.856 104.832C157.844 105.248 156.966 105.936 156.321 106.82C155.676 107.704 155.288 108.749 155.2 109.84C154.279 123.575 154.713 137.366 156.496 151.016C159.816 176.856 162.896 217.04 162.896 217.04C162.896 217.04 189.336 215.936 209.736 211.632C207.248 191.88 198.736 158.776 198.656 149.912C198.56 138.504 198.824 116.2 199.184 106.888C199.244 105.573 198.832 104.28 198.022 103.243C197.213 102.206 196.058 101.492 194.768 101.232C192.321 100.778 189.824 100.657 187.344 100.872Z" fill="#FCA43C"/>
<path opacity="0.7" d="M187.344 100.872C184.344 106.472 173.664 127.808 172.368 140.976C167.64 128.976 168.672 102.432 168.672 102.432C165.302 102.76 161.997 103.569 158.856 104.832C157.844 105.248 156.966 105.936 156.321 106.82C155.676 107.704 155.288 108.749 155.2 109.84C154.279 123.575 154.713 137.366 156.496 151.016C159.816 176.856 162.896 217.04 162.896 217.04C162.896 217.04 189.336 215.936 209.736 211.632C207.248 191.88 198.736 158.776 198.656 149.912C198.56 138.504 198.824 116.192 199.184 106.88C199.26 105.605 198.883 104.345 198.121 103.32C197.358 102.296 196.259 101.573 195.016 101.28C192.491 100.785 189.908 100.648 187.344 100.872Z" fill="white"/>
<path d="M181.112 212.752C176.52 187.416 172.88 150.24 172.584 145.768H172.992C173.288 150.24 176.936 187.368 181.52 212.704L181.112 212.752Z" fill="white"/>
<path d="M178.824 167.68H154.44C153.948 167.658 153.476 167.477 153.095 167.164C152.714 166.851 152.445 166.423 152.328 165.944L144.176 128.048C144.116 127.841 144.107 127.623 144.148 127.412C144.189 127.2 144.279 127.002 144.412 126.832C144.545 126.663 144.716 126.527 144.912 126.437C145.107 126.346 145.321 126.304 145.536 126.312H169.912C170.406 126.332 170.88 126.513 171.262 126.826C171.644 127.139 171.915 127.568 172.032 128.048L180.184 165.944C180.244 166.151 180.254 166.369 180.212 166.58C180.171 166.792 180.081 166.99 179.948 167.16C179.815 167.329 179.644 167.465 179.449 167.555C179.253 167.646 179.039 167.688 178.824 167.68Z" fill="white"/>
<path d="M178.064 168H153.264C152.763 167.977 152.282 167.792 151.894 167.473C151.507 167.155 151.232 166.719 151.112 166.232L142.816 127.696C142.757 127.485 142.748 127.263 142.791 127.047C142.833 126.832 142.927 126.63 143.062 126.458C143.198 126.286 143.372 126.148 143.572 126.056C143.771 125.964 143.989 125.92 144.208 125.928H169.008C169.509 125.951 169.99 126.136 170.377 126.455C170.765 126.773 171.04 127.209 171.16 127.696L179.448 166.232C179.509 166.443 179.519 166.665 179.477 166.88C179.436 167.095 179.344 167.297 179.208 167.47C179.073 167.643 178.899 167.781 178.7 167.873C178.501 167.965 178.283 168.009 178.064 168Z" fill="#FCA43C"/>
<path d="M180.904 146.256L174.736 146.024C173.994 145.998 173.256 146.129 172.568 146.408L169.368 147.688C169.068 147.807 168.795 147.985 168.565 148.212C168.335 148.439 168.154 148.71 168.031 149.009C167.909 149.308 167.848 149.628 167.852 149.951C167.856 150.274 167.926 150.592 168.056 150.888L169.336 153.656C169.594 154.193 170.03 154.624 170.569 154.878C171.108 155.131 171.718 155.191 172.296 155.048L175.824 154.168C175.824 154.168 182.448 153.64 182.688 150.168L180.904 146.256Z" fill="#FFB573"/>
<path d="M197.936 104.304C199.464 106.704 200.864 108.896 202.24 111.248C203.616 113.6 204.968 115.928 206.24 118.36C207.512 120.792 208.72 123.304 209.816 125.992C210.385 127.4 210.871 128.839 211.272 130.304C211.788 132.089 212.025 133.943 211.976 135.8V136.112C211.979 136.165 211.979 136.219 211.976 136.272C211.976 136.56 211.896 136.848 211.84 137.136C211.784 137.424 211.712 137.648 211.632 137.936C211.552 138.224 211.464 138.376 211.376 138.6C211.07 139.292 210.678 139.943 210.208 140.536C209.555 141.353 208.811 142.093 207.992 142.744C206.734 143.735 205.396 144.621 203.992 145.392C201.522 146.742 198.98 147.955 196.376 149.024C193.856 150.096 191.344 151.072 188.816 151.992C186.288 152.912 183.8 153.8 181.168 154.68L178.12 144.6C180.52 143.944 182.968 143.136 185.36 142.32C187.752 141.504 190.16 140.592 192.432 139.64C194.662 138.719 196.836 137.669 198.944 136.496C199.834 136.003 200.682 135.438 201.48 134.808C201.69 134.649 201.878 134.463 202.04 134.256C201.971 134.334 201.917 134.423 201.88 134.52C201.88 134.592 201.84 134.64 201.8 134.728C201.769 134.822 201.745 134.918 201.728 135.016C201.695 135.139 201.673 135.265 201.664 135.392C201.664 135.44 201.664 135.448 201.664 135.432V135.376C201.608 134.617 201.461 133.867 201.224 133.144C200.904 132.097 200.525 131.068 200.088 130.064C199.11 127.85 198.004 125.694 196.776 123.608C195.528 121.464 194.2 119.32 192.776 117.208C191.352 115.096 189.896 112.992 188.432 111.072L197.936 104.304Z" fill="#FCA43C"/>
<g opacity="0.7">
<path d="M197.936 104.304C199.464 106.704 200.864 108.896 202.24 111.248C203.616 113.6 204.968 115.928 206.24 118.36C207.512 120.792 208.72 123.304 209.816 125.992C210.385 127.4 210.871 128.839 211.272 130.304C211.788 132.089 212.025 133.943 211.976 135.8V136.112C211.979 136.165 211.979 136.219 211.976 136.272C211.976 136.56 211.896 136.848 211.84 137.136C211.784 137.424 211.712 137.648 211.632 137.936C211.552 138.224 211.464 138.376 211.376 138.6C211.07 139.292 210.678 139.943 210.208 140.536C209.555 141.353 208.811 142.093 207.992 142.744C206.734 143.735 205.396 144.621 203.992 145.392C201.522 146.742 198.98 147.955 196.376 149.024C193.856 150.096 191.344 151.072 188.816 151.992C186.288 152.912 183.8 153.8 181.168 154.68L178.12 144.6C180.52 143.944 182.968 143.136 185.36 142.32C187.752 141.504 190.16 140.592 192.432 139.64C194.662 138.719 196.836 137.669 198.944 136.496C199.834 136.003 200.682 135.438 201.48 134.808C201.69 134.649 201.878 134.463 202.04 134.256C201.971 134.334 201.917 134.423 201.88 134.52C201.88 134.592 201.84 134.64 201.8 134.728C201.769 134.822 201.745 134.918 201.728 135.016C201.695 135.139 201.673 135.265 201.664 135.392C201.664 135.44 201.664 135.448 201.664 135.432V135.376C201.608 134.617 201.461 133.867 201.224 133.144C200.904 132.097 200.525 131.068 200.088 130.064C199.11 127.85 198.004 125.694 196.776 123.608C195.528 121.464 194.2 119.32 192.776 117.208C191.352 115.096 189.896 112.992 188.432 111.072L197.936 104.304Z" fill="white"/>
</g>
<path d="M189.84 132.064C189.787 132.063 189.734 132.049 189.688 132.022C189.642 131.996 189.603 131.958 189.576 131.912C189.553 131.877 189.536 131.838 189.529 131.796C189.521 131.755 189.521 131.713 189.53 131.671C189.539 131.63 189.556 131.591 189.581 131.557C189.605 131.523 189.636 131.494 189.672 131.472L190.92 130.672C192.085 129.937 192.999 128.866 193.542 127.601C194.085 126.335 194.231 124.934 193.96 123.584L191.448 110.864C191.264 109.913 190.765 109.052 190.031 108.419C189.297 107.787 188.371 107.421 187.403 107.381C186.435 107.34 185.482 107.627 184.698 108.195C183.913 108.763 183.343 109.58 183.08 110.512L179.52 122.984C179.131 124.302 179.153 125.708 179.581 127.014C180.01 128.32 180.826 129.464 181.92 130.296L183.104 131.192C183.171 131.244 183.214 131.32 183.225 131.404C183.235 131.488 183.212 131.573 183.16 131.64C183.135 131.673 183.104 131.7 183.068 131.721C183.032 131.741 182.993 131.754 182.952 131.76C182.911 131.765 182.869 131.762 182.83 131.751C182.79 131.74 182.753 131.721 182.72 131.696L181.6 130.808C180.397 129.902 179.498 128.652 179.022 127.223C178.546 125.794 178.516 124.254 178.936 122.808L182.504 110.336C182.81 109.271 183.466 108.34 184.365 107.692C185.264 107.044 186.354 106.717 187.461 106.763C188.568 106.809 189.628 107.226 190.47 107.946C191.312 108.667 191.887 109.649 192.104 110.736L194.616 123.464C194.913 124.939 194.754 126.47 194.161 127.853C193.568 129.235 192.569 130.406 191.296 131.208L190.04 132.008C190.012 132.03 189.98 132.047 189.946 132.056C189.911 132.066 189.875 132.069 189.84 132.064Z" fill="#263238"/>
<path d="M191.76 111.128L182.776 110.752C182.734 110.75 182.693 110.74 182.655 110.722C182.617 110.704 182.583 110.678 182.554 110.647C182.526 110.616 182.504 110.579 182.49 110.54C182.476 110.5 182.47 110.458 182.472 110.416C182.48 110.332 182.519 110.255 182.581 110.199C182.643 110.143 182.724 110.112 182.808 110.112L191.784 110.488C191.826 110.49 191.867 110.5 191.905 110.518C191.943 110.536 191.978 110.562 192.006 110.593C192.034 110.624 192.056 110.661 192.07 110.7C192.084 110.74 192.09 110.782 192.088 110.824C192.087 110.866 192.078 110.907 192.061 110.945C192.043 110.983 192.019 111.017 191.988 111.045C191.958 111.074 191.922 111.095 191.883 111.11C191.843 111.124 191.802 111.13 191.76 111.128Z" fill="#263238"/>
<path d="M187.392 107.4C187.309 107.398 187.23 107.365 187.171 107.307C187.111 107.249 187.076 107.171 187.072 107.088C187.072 105.488 186.576 102.712 185.08 102.104C185.039 102.09 185 102.068 184.968 102.039C184.935 102.009 184.909 101.974 184.891 101.934C184.873 101.895 184.863 101.852 184.862 101.808C184.861 101.764 184.869 101.721 184.885 101.68C184.902 101.64 184.926 101.603 184.957 101.573C184.988 101.542 185.025 101.518 185.066 101.502C185.107 101.486 185.15 101.479 185.194 101.481C185.238 101.483 185.281 101.493 185.32 101.512C187.536 102.424 187.72 106.6 187.72 107.112C187.72 107.196 187.688 107.277 187.63 107.338C187.572 107.399 187.492 107.436 187.408 107.44L187.392 107.4Z" fill="#263238"/>
<path d="M159.912 118.272H159.848C159.765 118.255 159.693 118.205 159.647 118.135C159.6 118.065 159.583 117.979 159.6 117.896C160.656 112.64 165.024 104.344 168.872 101.896C168.907 101.874 168.946 101.859 168.987 101.853C169.028 101.846 169.07 101.848 169.11 101.858C169.15 101.867 169.188 101.885 169.221 101.909C169.254 101.934 169.283 101.964 169.304 102C169.327 102.034 169.343 102.073 169.351 102.114C169.359 102.154 169.358 102.196 169.349 102.237C169.34 102.277 169.323 102.315 169.299 102.349C169.275 102.382 169.244 102.411 169.208 102.432C165.488 104.784 161.248 112.832 160.224 118.008C160.211 118.081 160.173 118.148 160.116 118.196C160.059 118.244 159.987 118.271 159.912 118.272Z" fill="#263238"/>
<path d="M162.536 119.096C162.04 120.368 160.936 121.136 160.136 120.808C159.336 120.48 159.024 119.208 159.52 117.904C160.016 116.6 161.12 115.864 161.92 116.2C162.72 116.536 163.04 117.824 162.536 119.096Z" fill="white"/>
<path d="M183.656 131.488C183.656 132.08 183.288 132.552 182.896 132.536C182.504 132.52 182.2 132.024 182.224 131.424C182.248 130.824 182.592 130.352 182.984 130.376C183.376 130.4 183.68 130.888 183.656 131.488Z" fill="white"/>
<path d="M190.552 131.776C190.552 132.368 190.192 132.84 189.792 132.824C189.392 132.808 189.104 132.312 189.128 131.712C189.152 131.112 189.488 130.648 189.928 130.664C190.368 130.68 190.576 131.2 190.552 131.776Z" fill="white"/>
<path d="M326.216 120.68L325.416 120.632C325.549 118.929 325.327 117.216 324.763 115.604C324.199 113.991 323.307 112.513 322.142 111.264C320.976 110.014 319.564 109.021 317.995 108.346C316.425 107.671 314.733 107.33 313.024 107.344V106.544C314.842 106.528 316.643 106.891 318.314 107.609C319.984 108.326 321.487 109.383 322.728 110.712C323.968 112.041 324.919 113.614 325.519 115.329C326.12 117.045 326.357 118.867 326.216 120.68Z" fill="#FCA43C"/>
<path d="M326.638 124.034L326.174 130.658L326.974 130.714L327.438 124.09L326.638 124.034Z" fill="#FCA43C"/>
<path d="M313.024 109.344H257.824C254.81 109.393 251.921 110.563 249.721 112.624C247.521 114.685 246.166 117.491 245.92 120.496L245.416 127.928C245.301 129.358 245.486 130.796 245.958 132.151C246.43 133.506 247.179 134.747 248.158 135.796C249.136 136.846 250.323 137.679 251.641 138.245C252.96 138.81 254.381 139.095 255.816 139.08H311.016L321.72 145.68L323.416 120.496C323.532 119.066 323.348 117.628 322.877 116.274C322.406 114.919 321.658 113.677 320.68 112.628C319.702 111.579 318.516 110.745 317.198 110.179C315.88 109.614 314.458 109.329 313.024 109.344Z" fill="#FCA43C"/>
<path d="M310.224 119.992H259.096V121.848H310.224V119.992Z" fill="white"/>
<path d="M309.776 126.576H271.816V128.432H309.776V126.576Z" fill="white"/>
<path d="M229.984 149.104H286.4C287.867 149.088 289.321 149.378 290.669 149.956C292.017 150.533 293.231 151.386 294.231 152.458C295.231 153.531 295.997 154.801 296.48 156.186C296.962 157.571 297.15 159.042 297.032 160.504L296.52 168.104C296.267 171.175 294.881 174.042 292.632 176.148C290.384 178.255 287.433 179.451 284.352 179.504H227.928L216.072 186.264L217.816 160.504C218.068 157.432 219.453 154.564 221.702 152.457C223.951 150.35 226.903 149.155 229.984 149.104Z" fill="white"/>
<path opacity="0.15" d="M229.984 149.104H286.4C287.867 149.088 289.321 149.378 290.669 149.956C292.017 150.533 293.231 151.386 294.231 152.458C295.231 153.531 295.997 154.801 296.48 156.186C296.962 157.571 297.15 159.042 297.032 160.504L296.52 168.104C296.267 171.175 294.881 174.042 292.632 176.148C290.384 178.255 287.433 179.451 284.352 179.504H227.928L216.072 186.264L217.816 160.504C218.068 157.432 219.453 154.564 221.702 152.457C223.951 150.35 226.903 149.155 229.984 149.104Z" fill="#FCA43C"/>
<path opacity="0.5" d="M283.536 159.992H231.248V161.896H283.536V159.992Z" fill="#FCA43C"/>
<path opacity="0.5" d="M251.456 166.72H230.792V168.624H251.456V166.72Z" fill="#FCA43C"/>
<path opacity="0.5" d="M269.72 166.72H256.52V168.624H269.72V166.72Z" fill="#FCA43C"/>
</svg>
