<svg width="80" height="80" viewBox="0 0 80 80" fill="none" xmlns="http://www.w3.org/2000/svg">
<path d="M24.9983 14.1999C24.4847 14.1231 24.1423 13.9583 24.0735 13.6863C24.0047 13.4143 24.2335 13.0623 24.4991 12.9567C24.8518 12.8205 25.2328 12.7738 25.6079 12.8207C25.5599 12.3503 25.9951 11.7919 26.4239 11.5551C26.8527 11.3183 27.6303 11.2623 28.0687 11.6239C28.1951 10.7775 28.7391 10.3631 29.5903 10.0671C30.0591 9.90706 31.0303 9.80627 31.7743 10.4863C32.2671 9.56307 33.7391 9.01107 35.2495 9.61427C35.8449 9.85963 36.3295 10.3151 36.6111 10.8943C36.7517 11.2243 36.8303 11.5774 36.8431 11.9359C37.0465 11.7943 37.2857 11.7127 37.5332 11.7006C37.7808 11.6884 38.0268 11.7461 38.2431 11.8671C38.4074 11.9698 38.5412 12.1147 38.6307 12.2866C38.7201 12.4585 38.762 12.6511 38.7519 12.8447C39.0639 12.8634 39.3705 12.9342 39.6591 13.0543C39.9791 13.1919 40.3263 13.5007 40.2079 13.8239C40.1183 14.0687 39.8143 14.1647 39.5455 14.2015C39.0109 14.276 38.4668 14.2423 37.9455 14.1023C37.4593 14.4221 36.8871 14.586 36.3053 14.572C35.7235 14.558 35.1598 14.3668 34.6895 14.0239C34.4768 14.1857 34.2522 14.3312 34.0175 14.4591C33.7688 14.5679 33.505 14.6386 33.2351 14.6687C32.7791 14.7167 32.1359 14.6303 31.7807 14.3311C31.7353 14.2828 31.6761 14.2498 31.6111 14.2367C31.5588 14.2401 31.5085 14.2578 31.4655 14.2879C31.1163 14.4714 30.7226 14.5537 30.3291 14.5254C29.9356 14.4971 29.5578 14.3595 29.2383 14.1279C28.828 14.4952 28.2906 14.6881 27.7404 14.6657C27.1901 14.6433 26.6702 14.4073 26.2911 14.0079C25.8872 14.1935 25.4387 14.2601 24.9983 14.1999Z" fill="#F5F5F5"/>
<path d="M20.2256 10.2736C20.6096 10.216 20.8656 10.0912 20.9168 9.88796C20.9299 9.77481 20.9058 9.66046 20.848 9.56228C20.7903 9.4641 20.7021 9.38744 20.5968 9.34396C20.3336 9.24236 20.0494 9.20772 19.7696 9.24316C19.8048 8.89116 19.4816 8.47356 19.1616 8.29756C18.8416 8.12156 18.2592 8.07836 17.9328 8.34876C17.8384 7.70876 17.432 7.40796 16.7952 7.18556C16.5194 7.09183 16.2239 7.07205 15.9381 7.1282C15.6523 7.18435 15.3862 7.31447 15.1664 7.50556C14.7968 6.81756 13.6992 6.40316 12.5712 6.85436C12.1254 7.03829 11.7631 7.38008 11.5536 7.81436C11.4487 8.06075 11.3901 8.32435 11.3808 8.59196C11.2285 8.48663 11.0498 8.42601 10.8649 8.41696C10.6799 8.40791 10.4962 8.4508 10.3344 8.54076C10.2118 8.61781 10.112 8.72622 10.0453 8.85477C9.97862 8.98333 9.9475 9.12736 9.95517 9.27196C9.72157 9.2863 9.49214 9.34041 9.27676 9.43196C9.03356 9.53436 8.77916 9.76476 8.86716 10.0048C8.93436 10.1888 9.16156 10.2608 9.36156 10.288C9.76308 10.3391 10.1708 10.308 10.56 10.1968C10.923 10.4354 11.3501 10.5576 11.7844 10.547C12.2187 10.5364 12.6394 10.3936 12.9904 10.1376C13.1503 10.2564 13.3188 10.3634 13.4944 10.4576C13.6797 10.5404 13.8767 10.5944 14.0784 10.6176C14.4192 10.6544 14.8976 10.5888 15.1648 10.3648C15.1983 10.3286 15.2427 10.3045 15.2912 10.296C15.3296 10.298 15.3668 10.3107 15.3984 10.3328C15.6592 10.47 15.9532 10.5316 16.2472 10.5106C16.5412 10.4897 16.8236 10.3871 17.0624 10.2144C17.369 10.4883 17.7701 10.6323 18.181 10.6159C18.5918 10.5994 18.9802 10.4239 19.264 10.1264C19.564 10.2658 19.8976 10.3169 20.2256 10.2736Z" fill="#F5F5F5"/>
<path d="M32.2463 41.6928L47.1199 50.7232L54.1791 52.6225L63.5839 49.136L71.9839 49.1584L76.1807 43.8832L71.9839 29.6768L68.9583 28.2433L66.0447 14.5312L54.6863 14.9296L52.5791 22.3616L49.1951 23.3777L45.9327 29.8305L38.3215 31.6976L32.2463 41.6928Z" fill="#37474F"/>
<path d="M63.2175 41.6079L53.3439 45.1007L41.6671 39.5295L53.6015 42.7247L63.2175 41.6079Z" fill="#455A64"/>
<path d="M54.1792 52.6226L53.344 45.101L63.2176 41.6082L63.584 49.1362L54.1792 52.6226Z" fill="#263238"/>
<path d="M69.6047 34.8896L71.9839 49.1584L76.1807 43.8832L71.9839 29.6768L69.6047 34.8896Z" fill="#263238"/>
<path d="M54.6863 14.9296L64.5183 17.7617L66.0447 14.5312L54.6863 14.9296Z" fill="#FCA43C"/>
<path opacity="0.35" d="M54.6863 14.9296L64.5183 17.7617L66.0447 14.5312L54.6863 14.9296Z" fill="white"/>
<path d="M68.9583 28.2432L66.4543 33.584L52.3375 36.1744L69.6047 34.8896L71.9839 29.6768L68.9583 28.2432Z" fill="#455A64"/>
<path d="M68.9583 28.2433L66.4543 33.584L64.5183 17.7617L66.0447 14.5312L68.9583 28.2433Z" fill="#263238"/>
<path d="M38.3215 31.6978L45.9327 29.8306L49.1167 34.4562L38.3215 31.6978Z" fill="#455A64"/>
<path d="M52.5792 22.3616L55.0608 26.1296L64.2208 27.048L53.0576 28.1168L49.1952 23.3776L52.5792 22.3616Z" fill="#455A64"/>
<path d="M26.8976 49.8001L37.6448 54.2529L47.12 50.7233L46.9424 45.5361L42.136 42.1409L37.928 40.6593L33.6976 39.2993L29.8816 40.2481L26.8976 49.8001Z" fill="#37474F"/>
<path d="M42.136 42.1409L40.4048 46.3009L34.8192 47.1329L28.592 45.5041L38.0784 49.6625L45.0336 47.9409L46.9424 45.5361L42.136 42.1409Z" fill="#455A64"/>
<path d="M37.6448 54.2529L38.0784 49.6625L45.0336 47.9409L46.9424 45.5361L47.12 50.7233L37.6448 54.2529Z" fill="#263238"/>
<path d="M33.6976 39.2993L29.8816 40.2481L34.1328 41.8145L37.928 40.6593L33.6976 39.2993Z" fill="#455A64"/>
<path d="M63.2016 55.3265L66.9216 57.0961V54.1009L64.472 52.6497L63.2016 55.3265Z" fill="#263238"/>
<path d="M68.5552 53.1487L66.9216 54.1007V57.0959L69.3712 55.9167L68.5552 53.1487Z" fill="#37474F"/>
<path d="M64.472 52.6496L66.696 52.4224L68.5552 53.1488L66.9216 54.1008L64.472 52.6496Z" fill="#455A64"/>
<path d="M68.4192 54.9585L69.1184 55.4129L70.272 55.1857L69.496 54.8257H68.9664L68.4192 54.9585Z" fill="#455A64"/>
<path d="M68.9296 56.9247L69.1184 55.4127L70.272 55.1855L70.5744 55.9423L68.9296 56.9247Z" fill="#37474F"/>
<path d="M68.4192 54.9583L67.832 56.6607L68.9296 56.9247L69.1184 55.4127L68.4192 54.9583Z" fill="#263238"/>
<path d="M63.2016 55.3265L66.9216 57.0961V54.1009L64.472 52.6497L63.2016 55.3265Z" fill="#263238"/>
<path d="M68.5552 53.1487L66.9216 54.1007V57.0959L69.3712 55.9167L68.5552 53.1487Z" fill="#37474F"/>
<path d="M64.472 52.6496L66.696 52.4224L68.5552 53.1488L66.9216 54.1008L64.472 52.6496Z" fill="#455A64"/>
<path d="M68.4192 54.9585L69.1184 55.4129L70.272 55.1857L69.496 54.8257H68.9664L68.4192 54.9585Z" fill="#455A64"/>
<path d="M68.9296 56.9247L69.1184 55.4127L70.272 55.1855L70.5744 55.9423L68.9296 56.9247Z" fill="#37474F"/>
<path d="M68.4192 54.9583L67.832 56.6607L68.9296 56.9247L69.1184 55.4127L68.4192 54.9583Z" fill="#263238"/>
<path d="M64.48 15.9631C60.3632 17.4703 59.632 18.6831 59.2752 26.0735C59.2403 27.0636 59.09 28.0463 58.8272 29.0015C58.0928 31.5487 56.4848 33.0559 53.928 34.4559C48.44 37.4655 48.2592 41.1007 48.2176 43.6047C48.1248 49.1583 48.1536 53.6511 40.3936 59.5487C33.8336 64.5327 26.4368 68.2911 23.4608 76.4559C17.9616 75.1999 12.808 73.2799 8.35843 70.7199C6.8765 69.8703 5.45403 68.9209 4.10083 67.8783C7.62083 61.0143 19.2864 56.8463 24.8544 55.1695C30.6512 53.4223 39.016 50.9711 40.5232 43.6831C41.6304 38.3263 41.5072 35.6015 50.4176 31.1391C52.4144 30.1391 53.7264 29.0975 54.6208 28.0319C57.0208 25.1807 56.4048 22.1567 57.9104 19.2703C59.3744 16.4639 61.9536 15.9711 61.9536 15.9711L64.48 15.9631Z" fill="#FCA43C"/>
<path opacity="0.35" d="M64.48 15.9631C60.3632 17.4703 59.632 18.6831 59.2752 26.0735C59.2403 27.0636 59.09 28.0463 58.8272 29.0015C58.0928 31.5487 56.4848 33.0559 53.928 34.4559C48.44 37.4655 48.2592 41.1007 48.2176 43.6047C48.1248 49.1583 48.1536 53.6511 40.3936 59.5487C33.8336 64.5327 26.4368 68.2911 23.4608 76.4559C17.9616 75.1999 12.808 73.2799 8.35843 70.7199C6.8765 69.8703 5.45403 68.9209 4.10083 67.8783C7.62083 61.0143 19.2864 56.8463 24.8544 55.1695C30.6512 53.4223 39.016 50.9711 40.5232 43.6831C41.6304 38.3263 41.5072 35.6015 50.4176 31.1391C52.4144 30.1391 53.7264 29.0975 54.6208 28.0319C57.0208 25.1807 56.4048 22.1567 57.9104 19.2703C59.3744 16.4639 61.9536 15.9711 61.9536 15.9711L64.48 15.9631Z" fill="white"/>
<path d="M56.5328 7.81616V15.1762C56.5328 15.253 56.7296 15.2562 56.7328 15.1762V7.83856L56.5328 7.81616Z" fill="#455A64"/>
<path d="M56.7664 7.85447C56.7608 7.8804 56.7477 7.9041 56.7286 7.92256C56.7095 7.94103 56.6855 7.95344 56.6594 7.95824C56.6333 7.96303 56.6063 7.95999 56.5819 7.9495C56.5576 7.93902 56.5368 7.92155 56.5224 7.8993C56.5079 7.87705 56.5004 7.85102 56.5007 7.82448C56.501 7.79795 56.5091 7.7721 56.5241 7.75019C56.5391 7.72829 56.5602 7.71131 56.5848 7.70139C56.6095 7.69147 56.6365 7.68906 56.6624 7.69447C56.6798 7.69808 56.6963 7.70509 56.7109 7.7151C56.7256 7.72512 56.7381 7.73793 56.7478 7.7528C56.7574 7.76768 56.7641 7.78432 56.7673 7.80177C56.7705 7.81922 56.7702 7.83713 56.7664 7.85447Z" fill="#37474F"/>
<path d="M56.5328 7.91211C55.9152 8.64971 55.0384 8.32011 54.3152 8.27691C53.5328 8.23051 53.056 8.48331 52.8176 8.82731C53.0448 8.76651 53.6784 8.82731 53.8784 8.98731C53.8784 8.98731 53.0784 9.50891 53.0784 10.3649C53.3104 10.0017 53.7184 9.72491 54.496 9.88491C55.1824 10.0273 56.0512 10.3425 56.528 9.81451L56.5328 7.91211Z" fill="#FCA43C"/>
<path opacity="0.1" d="M55.7697 9.82083C55.1393 10.0128 53.4193 9.18083 53.0801 10.3664C53.3121 10.0032 53.7201 9.72643 54.4977 9.88643C55.1841 10.0288 56.0529 10.344 56.5297 9.81603V7.90723C56.5297 8.66403 56.4001 9.63043 55.7697 9.82083Z" fill="black"/>
<path d="M55.2529 8.64008L55.3617 8.96968L55.7057 9.01608C55.7101 9.01694 55.7141 9.01902 55.7174 9.02208C55.7207 9.02514 55.723 9.02906 55.7242 9.03339C55.7254 9.03772 55.7253 9.04229 55.724 9.04658C55.7227 9.05088 55.7202 9.05472 55.7169 9.05768L55.4369 9.26248L55.4977 9.60488C55.4985 9.6093 55.498 9.61388 55.4963 9.61802C55.4945 9.62216 55.4915 9.62567 55.4877 9.62809C55.4839 9.63051 55.4795 9.63173 55.475 9.63158C55.4704 9.63144 55.4661 9.62994 55.4625 9.62728L55.1809 9.42408L54.8753 9.58408C54.8712 9.586 54.8666 9.58674 54.8621 9.5862C54.8577 9.58566 54.8534 9.58386 54.8499 9.58102C54.8464 9.57818 54.8438 9.57441 54.8423 9.57014C54.8408 9.56587 54.8406 9.56127 54.8417 9.55688L54.9473 9.22568L54.6961 8.98568C54.6931 8.98234 54.691 8.97824 54.6903 8.97382C54.6895 8.96941 54.6899 8.96486 54.6916 8.96069C54.6933 8.95653 54.6961 8.95291 54.6997 8.95026C54.7033 8.94761 54.7076 8.94602 54.7121 8.94568H55.0593L55.2097 8.62568C55.2116 8.61995 55.2157 8.61521 55.2211 8.61251C55.2265 8.60981 55.2327 8.60937 55.2385 8.61128C55.2442 8.61319 55.2489 8.61729 55.2516 8.62269C55.2543 8.62809 55.2548 8.63435 55.2529 8.64008Z" fill="white"/>
<path d="M49.8224 13.8113L49.8112 23.5041C49.8112 23.6065 50.072 23.6113 50.0768 23.5041L50.08 13.8385L49.8224 13.8113Z" fill="#37474F"/>
<path d="M50.1296 13.8625C50.1225 13.8973 50.1052 13.9292 50.0798 13.9541C50.0545 13.979 50.0224 13.9959 49.9875 14.0025C49.9526 14.0091 49.9165 14.0052 49.8838 13.9913C49.8512 13.9773 49.8233 13.954 49.804 13.9242C49.7846 13.8945 49.7745 13.8596 49.7749 13.8241C49.7754 13.7886 49.7864 13.754 49.8065 13.7247C49.8267 13.6955 49.8551 13.6729 49.8881 13.6598C49.9211 13.6467 49.9573 13.6438 49.992 13.6513C50.0382 13.6613 50.0785 13.6891 50.1042 13.7286C50.13 13.7681 50.1391 13.8162 50.1296 13.8625Z" fill="#37474F"/>
<path d="M49.8208 13.9377C49.0064 14.9089 47.8512 14.4753 46.8992 14.4177C45.8672 14.3553 45.2384 14.6881 44.9264 15.1409C45.224 15.0625 46.0592 15.1409 46.3232 15.3553C46.3232 15.3553 45.272 16.0433 45.2704 17.1697C45.576 16.6897 46.1088 16.3329 47.1392 16.5441C48.0432 16.7313 49.1888 17.1473 49.8176 16.4497L49.8208 13.9377Z" fill="#FCA43C"/>
<path opacity="0.1" d="M48.8144 16.4529C47.984 16.7057 45.7168 15.6001 45.2704 17.1713C45.576 16.6913 46.1088 16.3345 47.1392 16.5457C48.0432 16.7329 49.1888 17.1489 49.8176 16.4513V13.9377C49.8176 14.9281 49.6464 16.2017 48.8144 16.4529Z" fill="black"/>
<path d="M40.7728 19.8064L40.76 31.84C40.76 31.9664 41.08 31.9712 41.088 31.84L41.1024 19.84L40.7728 19.8064Z" fill="#37474F"/>
<path d="M41.1552 19.8688C41.1497 19.8976 41.1385 19.925 41.1222 19.9494C41.106 19.9739 41.085 19.9948 41.0606 20.0111C41.0361 20.0273 41.0087 20.0385 40.9799 20.0441C40.9511 20.0496 40.9214 20.0493 40.8927 20.0433C40.864 20.0372 40.8368 20.0255 40.8127 20.0088C40.7885 19.9921 40.768 19.9707 40.7522 19.946C40.7364 19.9212 40.7257 19.8936 40.7207 19.8647C40.7158 19.8358 40.7166 19.8061 40.7232 19.7776C40.7291 19.7492 40.7405 19.7224 40.7568 19.6985C40.7732 19.6746 40.794 19.6542 40.8183 19.6385C40.8425 19.6227 40.8696 19.6119 40.8981 19.6067C40.9265 19.6014 40.9557 19.6019 40.984 19.608C41.0412 19.6199 41.0914 19.654 41.1235 19.7029C41.1556 19.7518 41.167 19.8115 41.1552 19.8688Z" fill="#37474F"/>
<path d="M40.7712 19.9631C39.7616 21.1695 38.328 20.6303 37.1456 20.5599C35.8656 20.4831 35.0848 20.8975 34.6976 21.4591C35.0672 21.3599 36.104 21.4591 36.432 21.7247C36.432 21.7247 35.1264 22.5775 35.1248 23.9759C35.504 23.3839 36.1648 22.9375 37.4432 23.1999C38.5632 23.4319 39.9888 23.9471 40.768 23.0831L40.7712 19.9631Z" fill="#FCA43C"/>
<path opacity="0.1" d="M39.52 23.0847C38.488 23.4047 35.68 22.0271 35.1216 23.9759C35.5008 23.3839 36.1616 22.9375 37.44 23.1999C38.56 23.4319 39.9856 23.9471 40.7648 23.0831V19.9631C40.768 21.1919 40.5552 22.7727 39.52 23.0847Z" fill="black"/>
<path d="M31.3184 25.9536L31.3024 40.3216C31.3024 40.4704 31.6896 40.4816 31.6944 40.3216L31.7104 25.9904L31.3184 25.9536Z" fill="#37474F"/>
<path d="M31.7728 26.0289C31.7607 26.0793 31.7341 26.1251 31.6961 26.1604C31.6582 26.1958 31.6107 26.2192 31.5595 26.2278C31.5084 26.2363 31.4558 26.2296 31.4085 26.2084C31.3611 26.1873 31.321 26.1527 31.2932 26.1089C31.2654 26.0651 31.2511 26.0141 31.2521 25.9622C31.2531 25.9104 31.2694 25.86 31.2989 25.8173C31.3284 25.7746 31.3698 25.7416 31.4179 25.7223C31.4661 25.703 31.5188 25.6983 31.5696 25.7089C31.6042 25.716 31.6371 25.7301 31.6661 25.7502C31.6952 25.7703 31.72 25.796 31.7389 25.8259C31.7579 25.8557 31.7707 25.889 31.7765 25.9239C31.7823 25.9588 31.7811 25.9945 31.7728 26.0289Z" fill="#37474F"/>
<path d="M31.3168 26.1409C30.1088 27.5809 28.3968 26.9409 26.9856 26.8529C25.456 26.7617 24.5248 27.2561 24.0608 27.9265C24.5024 27.8097 25.7424 27.9265 26.1408 28.2465C26.1408 28.2465 24.5824 29.2657 24.5808 30.9345C25.0336 30.2273 25.8224 29.6945 27.3488 30.0081C28.6912 30.2849 30.3888 30.9009 31.32 29.8689L31.3168 26.1409Z" fill="#FCA43C"/>
<path opacity="0.1" d="M29.8256 29.8689C28.5936 30.2433 25.2336 28.6049 24.5728 30.9329C25.0256 30.2257 25.8144 29.6929 27.3408 30.0065C28.6832 30.2833 30.3808 30.8993 31.312 29.8673V26.1409C31.3104 27.6081 31.0576 29.4961 29.8256 29.8689Z" fill="black"/>
<path d="M61.224 5.47189L61.064 5.13269L61.7728 4.72469C61.8564 4.67533 61.9463 4.63764 62.04 4.61269L62.1392 4.59029C62.3051 4.56412 62.4744 4.569 62.6384 4.60469C62.6976 4.61749 62.7568 4.63349 62.8176 4.65269C62.8807 4.67346 62.9427 4.69749 63.0032 4.72469C63.0856 4.76041 63.1657 4.80102 63.2432 4.84629C63.3264 4.89589 63.4032 4.95029 63.4912 5.00629C63.5792 5.06229 63.6144 5.09909 63.6736 5.15029C64.5536 5.89269 65.2464 7.21749 65.4208 8.48949C65.4336 8.57802 65.4432 8.66442 65.4496 8.74869C65.4608 8.87189 65.4656 8.99509 65.4656 9.11509C65.4656 9.23509 65.4656 9.30869 65.4528 9.40149C65.44 9.49429 65.4384 9.56149 65.4272 9.63349C65.416 9.70549 65.4016 9.77909 65.384 9.84949C65.3418 10.0418 65.2723 10.2272 65.1776 10.3999C65.1584 10.4335 65.1392 10.4671 65.1184 10.4991C65.0329 10.6304 64.9245 10.7453 64.7984 10.8383C64.7617 10.8657 64.7232 10.8909 64.6832 10.9135L64.0128 11.3007L63.8656 10.9903C63.8251 10.9824 63.785 10.9723 63.7456 10.9599C63.5829 10.9096 63.4266 10.8404 63.28 10.7535C63.1855 10.6979 63.0941 10.637 63.0064 10.5711C62.8883 10.4824 62.7756 10.3868 62.6688 10.2847C61.8858 9.48407 61.3555 8.47082 61.144 7.37109C61.1136 7.21109 61.0896 7.05109 61.0752 6.88309C61.064 6.74709 61.0576 6.61429 61.0576 6.48149C61.0569 6.29065 61.0724 6.10009 61.104 5.91189C61.1302 5.76179 61.1704 5.61447 61.224 5.47189Z" fill="#FCA43C"/>
<path opacity="0.25" d="M65.2576 7.74069L63.8176 8.57109L63.6272 8.02389L65.0672 7.19189C65.14 7.37146 65.2035 7.55464 65.2576 7.74069Z" fill="white"/>
<path opacity="0.25" d="M61.7712 4.72469C61.8548 4.67533 61.9447 4.63764 62.0384 4.61269L62.1376 4.59029C62.3035 4.56412 62.4728 4.569 62.6368 4.60469L62.7024 4.62069L61.2224 5.47509L61.0624 5.13589L61.7712 4.72469Z" fill="white"/>
<path opacity="0.25" d="M61.92 6.82378L61.7312 6.59658L63.888 5.35498C63.9552 5.42218 64.0224 5.49418 64.088 5.56938L61.92 6.82378Z" fill="white"/>
<path opacity="0.25" d="M64.5504 6.17909L62.6832 7.25749L62.4768 6.71989L64.2176 5.71509C64.3368 5.86362 64.4479 6.01851 64.5504 6.17909Z" fill="white"/>
<path opacity="0.4" d="M61.7712 4.72469C61.8547 4.67533 61.9446 4.63764 62.0384 4.61269L62.1376 4.59029C62.3035 4.56412 62.4727 4.569 62.6368 4.60469C62.696 4.61749 62.7552 4.63349 62.816 4.65269C62.8791 4.67346 62.941 4.69749 63.0016 4.72469C63.0839 4.76041 63.1641 4.80102 63.2416 4.84629C63.3248 4.89589 63.4016 4.95029 63.4896 5.00629C63.5776 5.06229 63.6128 5.09909 63.672 5.15029C64.4912 5.84149 65.1488 7.03829 65.376 8.22709L62.376 9.96309C61.7583 9.21362 61.3366 8.32237 61.1488 7.36949C61.1184 7.20949 61.0944 7.04949 61.08 6.88149C61.0688 6.74549 61.0624 6.61269 61.0624 6.47989C61.0617 6.28905 61.0772 6.09849 61.1088 5.91029C61.1335 5.76089 61.172 5.61412 61.224 5.47189L61.064 5.13269L61.7712 4.72469Z" fill="white"/>
<path opacity="0.1" d="M64.0176 11.299L63.8704 10.9886C63.8299 10.9808 63.7898 10.9706 63.7504 10.9582C63.5877 10.908 63.4314 10.8387 63.2848 10.7518C63.1903 10.6962 63.0989 10.6353 63.0112 10.5694C62.8931 10.4807 62.7804 10.3851 62.6736 10.283C62.5712 10.1838 62.472 10.0766 62.376 9.96302L65.376 8.23022C65.3936 8.31822 65.408 8.40623 65.4192 8.49263C65.4304 8.57903 65.4416 8.66702 65.448 8.75182C65.4592 8.87502 65.464 8.99823 65.464 9.11823C65.464 9.23823 65.464 9.31182 65.4512 9.40462C65.4384 9.49742 65.4368 9.56462 65.4256 9.63662C65.4144 9.70862 65.4 9.78223 65.3824 9.85263C65.3404 10.0438 65.2714 10.228 65.1776 10.3998C65.1584 10.4334 65.1392 10.467 65.1184 10.499C65.0329 10.6303 64.9245 10.7452 64.7984 10.8382C64.7617 10.8657 64.7232 10.8908 64.6832 10.9134L64.0176 11.299Z" fill="black"/>
<path opacity="0.1" d="M65.1776 10.4C65.1584 10.4336 65.1392 10.4672 65.1184 10.4992C65.0329 10.6305 64.9245 10.7453 64.7984 10.8384C64.7616 10.8658 64.7232 10.8909 64.6832 10.9136L64.0128 11.3008L63.8656 10.9904L63.8544 10.864L65.3456 10.0032C65.3037 10.141 65.2474 10.274 65.1776 10.4Z" fill="black"/>
<path d="M60.304 6.91661C60.304 7.04941 60.304 7.18382 60.3216 7.31822C60.3367 7.48251 60.3602 7.64593 60.392 7.80781C60.6038 8.90766 61.1353 9.9206 61.92 10.7198C62.0254 10.8228 62.1377 10.9185 62.256 11.0062C62.3437 11.0721 62.435 11.133 62.5296 11.1886C62.6766 11.2758 62.8334 11.3451 62.9968 11.395C63.1565 11.4455 63.3239 11.4677 63.4912 11.4606C63.7158 11.4505 63.9321 11.373 64.112 11.2382C64.2378 11.1448 64.3461 11.03 64.432 10.899C64.4528 10.867 64.472 10.8334 64.4912 10.7998C64.5847 10.6283 64.6542 10.4447 64.6976 10.2542C64.7136 10.1854 64.728 10.1134 64.7392 10.0382C64.7504 9.96302 64.76 9.87821 64.7664 9.80621C64.7728 9.73421 64.7776 9.61901 64.7776 9.51981C64.7776 9.42061 64.7776 9.27661 64.7632 9.15341C64.7557 9.06808 64.7461 8.98168 64.7344 8.89421C64.5584 7.61421 63.8656 6.29742 62.9856 5.55502C62.9264 5.50382 62.8656 5.45741 62.8032 5.41101C62.7408 5.36461 62.6432 5.29741 62.5552 5.25101C62.4782 5.20577 62.3986 5.16516 62.3168 5.12942C62.2562 5.10222 62.1943 5.07819 62.1312 5.05741C62.0704 5.03821 62.0096 5.02221 61.9504 5.00941C61.7863 4.97343 61.6169 4.96908 61.4512 4.99661C61.4176 4.99661 61.3856 5.00941 61.352 5.01741C61.2104 5.05518 61.0773 5.11982 60.96 5.20781C60.7687 5.36004 60.619 5.55819 60.5248 5.78382C60.4486 5.96483 60.3948 6.15451 60.3648 6.34861C60.3299 6.53609 60.3095 6.72599 60.304 6.91661Z" fill="#FCA43C"/>
<path opacity="0.1" d="M60.304 6.91661C60.304 7.04941 60.304 7.18382 60.3216 7.31822C60.3367 7.48251 60.3602 7.64593 60.392 7.80781C60.6038 8.90766 61.1353 9.9206 61.92 10.7198C62.0254 10.8228 62.1377 10.9185 62.256 11.0062C62.3437 11.0721 62.435 11.133 62.5296 11.1886C62.6766 11.2758 62.8334 11.3451 62.9968 11.395C63.1565 11.4455 63.3239 11.4677 63.4912 11.4606C63.7158 11.4505 63.9321 11.373 64.112 11.2382C64.2378 11.1448 64.3461 11.03 64.432 10.899C64.4528 10.867 64.472 10.8334 64.4912 10.7998C64.5847 10.6283 64.6542 10.4447 64.6976 10.2542C64.7136 10.1854 64.728 10.1134 64.7392 10.0382C64.7504 9.96302 64.76 9.87821 64.7664 9.80621C64.7728 9.73421 64.7776 9.61901 64.7776 9.51981C64.7776 9.42061 64.7776 9.27661 64.7632 9.15341C64.7557 9.06808 64.7461 8.98168 64.7344 8.89421C64.5584 7.61421 63.8656 6.29742 62.9856 5.55502C62.9264 5.50382 62.8656 5.45741 62.8032 5.41101C62.7408 5.36461 62.6432 5.29741 62.5552 5.25101C62.4782 5.20577 62.3986 5.16516 62.3168 5.12942C62.2562 5.10222 62.1943 5.07819 62.1312 5.05741C62.0704 5.03821 62.0096 5.02221 61.9504 5.00941C61.7863 4.97343 61.6169 4.96908 61.4512 4.99661C61.4176 4.99661 61.3856 5.00941 61.352 5.01741C61.2104 5.05518 61.0773 5.11982 60.96 5.20781C60.7687 5.36004 60.619 5.55819 60.5248 5.78382C60.4486 5.96483 60.3948 6.15451 60.3648 6.34861C60.3299 6.53609 60.3095 6.72599 60.304 6.91661Z" fill="white"/>
<path opacity="0.05" d="M64.68 8.63037C64.6976 8.71837 64.712 8.80637 64.7248 8.89437C64.7376 8.98237 64.7456 9.06877 64.7536 9.15357C64.7632 9.27677 64.768 9.39997 64.768 9.51997C64.768 9.63997 64.768 9.71357 64.7568 9.80637C64.7456 9.89917 64.7408 9.96637 64.7296 10.0384C64.7184 10.1104 64.704 10.1856 64.688 10.2544C64.6441 10.4449 64.5741 10.6285 64.48 10.8C64.4608 10.8336 64.4416 10.8672 64.4208 10.8992C64.3349 11.0302 64.2266 11.145 64.1008 11.2384C63.9209 11.3731 63.7046 11.4506 63.48 11.4608C63.3126 11.4678 63.1453 11.4456 62.9856 11.3952C62.8222 11.3452 62.6654 11.276 62.5184 11.1888C62.4347 11.1396 62.3535 11.0862 62.2752 11.0288L64.68 8.63037Z" fill="black"/>
<path opacity="0.05" d="M64.64 10.408C64.6007 10.5439 64.5471 10.6754 64.48 10.8C64.4608 10.8336 64.4416 10.8672 64.4208 10.8992C64.3349 11.0302 64.2266 11.145 64.1008 11.2384C63.9531 11.3485 63.7805 11.4205 63.5984 11.448L64.64 10.408Z" fill="black"/>
<path opacity="0.15" d="M64.376 7.59497C64.4464 7.77417 64.5088 7.95817 64.5632 8.14217L61.952 10.7534L61.92 10.7198C61.8065 10.6111 61.6996 10.4957 61.6 10.3742L64.376 7.59497Z" fill="white"/>
<path opacity="0.15" d="M63.52 6.1167C63.6398 6.26521 63.7514 6.4201 63.8544 6.5807L60.9744 9.4607C60.8797 9.28444 60.7943 9.1034 60.7184 8.9183L63.52 6.1167Z" fill="white"/>
<path opacity="0.15" d="M63.2 5.75977C63.2688 5.82697 63.3376 5.89897 63.4032 5.97417L60.6512 8.71977C60.6128 8.61577 60.576 8.51337 60.544 8.39977L63.2 5.75977Z" fill="white"/>
<path opacity="0.15" d="M60.3104 6.71987C60.3104 6.66707 60.3184 6.61587 60.3232 6.55987V6.50867C60.3232 6.49107 60.3232 6.47347 60.3232 6.45747C60.3232 6.44147 60.3344 6.38227 60.3392 6.34547C60.3692 6.15136 60.423 5.96168 60.4992 5.78067C60.5934 5.55504 60.7431 5.35689 60.9344 5.20467C61.0506 5.1152 61.1833 5.04942 61.3248 5.01107C61.3584 5.00307 61.3904 4.99507 61.424 4.99027C61.5897 4.96273 61.7592 4.96708 61.9232 5.00307L61.9904 5.01907L60.3104 6.71987Z" fill="white"/>
<path d="M60.8736 7.25902C60.8736 8.43342 61.5584 9.79022 62.424 10.3662L62.536 10.4366C63.4544 10.9662 64.1984 10.403 64.1984 9.17902C64.1984 7.95502 63.4544 6.53102 62.536 6.00142C62.4997 5.97982 62.4623 5.96006 62.424 5.94222C61.5584 5.51822 60.8736 6.07982 60.8736 7.25902Z" fill="#FCA43C"/>
<path opacity="0.4" d="M60.8736 7.25902C60.8736 8.43342 61.5584 9.79022 62.424 10.3662L62.536 10.4366C63.4544 10.9662 64.1984 10.403 64.1984 9.17902C64.1984 7.95502 63.4544 6.53102 62.536 6.00142C62.4997 5.97982 62.4623 5.96006 62.424 5.94222C61.5584 5.51822 60.8736 6.07982 60.8736 7.25902Z" fill="black"/>
<path d="M60.9472 7.30058C60.9472 7.33898 60.9472 7.37738 60.9472 7.41578C60.9904 8.51018 61.6272 9.73738 62.4288 10.2702L62.4496 10.2846C62.4784 10.3038 62.5056 10.3214 62.5344 10.3374C62.6896 10.4303 62.8613 10.4922 63.04 10.5198C63.2149 10.5465 63.3938 10.5176 63.5514 10.4372C63.709 10.3568 63.8374 10.229 63.9184 10.0718C64.0438 9.83855 64.1139 9.57961 64.1232 9.31498C64.1232 9.25738 64.1232 9.19818 64.1232 9.13578C64.1232 9.07338 64.1232 9.02378 64.1232 8.96618C64.1161 8.84556 64.1028 8.7254 64.0832 8.60618C63.9421 7.75833 63.5333 6.97788 62.9168 6.37898C62.8375 6.30632 62.753 6.23949 62.664 6.17898C62.6224 6.15018 62.5808 6.12458 62.5392 6.10058L62.4336 6.04298L62.4032 6.02858C62.2006 5.9251 61.9703 5.88868 61.7456 5.92458C61.4112 5.98858 61.1536 6.25578 61.0304 6.68138C60.9734 6.88277 60.9454 7.09127 60.9472 7.30058Z" fill="#FCA43C"/>
<path opacity="0.5" d="M60.9472 7.30058C60.9472 7.33898 60.9472 7.37738 60.9472 7.41578C60.9904 8.51018 61.6272 9.73738 62.4288 10.2702L62.4496 10.2846C62.4784 10.3038 62.5056 10.3214 62.5344 10.3374C62.6896 10.4303 62.8613 10.4922 63.04 10.5198C63.2149 10.5465 63.3938 10.5176 63.5514 10.4372C63.709 10.3568 63.8374 10.229 63.9184 10.0718C64.0438 9.83855 64.1139 9.57961 64.1232 9.31498C64.1232 9.25738 64.1232 9.19818 64.1232 9.13578C64.1232 9.07338 64.1232 9.02378 64.1232 8.96618C64.1161 8.84556 64.1028 8.7254 64.0832 8.60618C63.9421 7.75833 63.5333 6.97788 62.9168 6.37898C62.8375 6.30632 62.753 6.23949 62.664 6.17898C62.6224 6.15018 62.5808 6.12458 62.5392 6.10058L62.4336 6.04298L62.4032 6.02858C62.2006 5.9251 61.9703 5.88868 61.7456 5.92458C61.4112 5.98858 61.1536 6.25578 61.0304 6.68138C60.9734 6.88277 60.9454 7.09127 60.9472 7.30058Z" fill="black"/>
<path d="M61.2128 7.26218C61.2128 7.22378 61.2128 7.18538 61.2128 7.14858C61.2098 6.93889 61.2368 6.72986 61.2928 6.52778C61.3485 6.30787 61.4669 6.10887 61.6336 5.95498C61.6695 5.94188 61.7064 5.93172 61.744 5.92458C61.9687 5.88868 62.199 5.9251 62.4016 6.02858L62.432 6.04298L62.5376 6.10058C62.5792 6.12458 62.6208 6.15018 62.6624 6.17898C62.7514 6.23949 62.8359 6.30632 62.9152 6.37898C63.5317 6.97788 63.9404 7.75833 64.0816 8.60618C64.1012 8.7254 64.1145 8.84556 64.1216 8.96618C64.1216 9.02378 64.1216 9.07978 64.1216 9.13578C64.1216 9.19178 64.1216 9.25738 64.1216 9.31498C64.1125 9.58259 64.0413 9.84442 63.9136 10.0798C63.8587 10.1768 63.7879 10.2639 63.704 10.3374C63.5739 10.3815 63.4352 10.3941 63.2992 10.3742C63.1227 10.3458 62.9532 10.2839 62.8 10.1918L62.7152 10.1406L62.6928 10.1262C61.8928 9.58538 61.2544 8.35658 61.2128 7.26218Z" fill="#FCA43C"/>
<path opacity="0.25" d="M61.2128 7.26218C61.2128 7.22378 61.2128 7.18538 61.2128 7.14858C61.2098 6.93889 61.2368 6.72986 61.2928 6.52778C61.3485 6.30787 61.4669 6.10887 61.6336 5.95498C61.6695 5.94188 61.7064 5.93172 61.744 5.92458C61.9687 5.88868 62.199 5.9251 62.4016 6.02858L62.432 6.04298L62.5376 6.10058C62.5792 6.12458 62.6208 6.15018 62.6624 6.17898C62.7514 6.23949 62.8359 6.30632 62.9152 6.37898C63.5317 6.97788 63.9404 7.75833 64.0816 8.60618C64.1012 8.7254 64.1145 8.84556 64.1216 8.96618C64.1216 9.02378 64.1216 9.07978 64.1216 9.13578C64.1216 9.19178 64.1216 9.25738 64.1216 9.31498C64.1125 9.58259 64.0413 9.84442 63.9136 10.0798C63.8587 10.1768 63.7879 10.2639 63.704 10.3374C63.5739 10.3815 63.4352 10.3941 63.2992 10.3742C63.1227 10.3458 62.9532 10.2839 62.8 10.1918L62.7152 10.1406L62.6928 10.1262C61.8928 9.58538 61.2544 8.35658 61.2128 7.26218Z" fill="black"/>
<path d="M61.44 4.99342C62.4 4.88462 63.1824 5.67982 63.704 6.39502C64.456 7.50542 64.9344 8.91022 64.6736 10.2542C64.6047 10.6389 64.4045 10.9878 64.1072 11.2414C64.4134 10.9929 64.6224 10.6445 64.6976 10.2574C64.9376 9.15822 64.6368 8.00142 64.1328 7.01742C63.5952 6.04302 62.6816 4.86062 61.44 4.99342Z" fill="#F5F5F5"/>
<path d="M63.7248 9.15179C63.7122 8.96404 63.6613 8.78085 63.5752 8.61354C63.489 8.44623 63.3695 8.29834 63.224 8.17899L63.3504 8.21099L63.7136 7.99979C63.6975 7.92095 63.6756 7.84341 63.648 7.76779C63.601 7.63961 63.5375 7.51807 63.4592 7.40619C63.3311 7.22701 63.1737 7.07069 62.9936 6.94379L62.9792 6.56779L62.5296 6.30859L62.1664 6.51819V6.61259V6.63339C62.1349 6.64324 62.1047 6.65723 62.0768 6.67499L62.0496 6.69419C62.0064 6.72459 61.7984 6.83339 61.7136 6.88459L61.6864 6.90379C61.6304 6.95602 61.5883 7.02144 61.564 7.0941C61.5396 7.16676 61.5339 7.24435 61.5472 7.31979C61.5565 7.52597 61.6193 7.72617 61.7296 7.90059C61.7392 7.91499 61.7488 7.92939 61.7568 7.94379L61.7872 7.98699L61.816 8.02379L61.8272 8.03819L61.8496 8.06699C61.9131 8.14186 61.9804 8.21342 62.0512 8.28139L62.1472 8.36779L61.9872 8.32619L61.624 8.53579C61.7293 8.93376 61.9719 9.28172 62.3088 9.51819L62.3232 9.89419L62.7776 10.1454L63.1408 9.93579V9.81739C63.167 9.81161 63.1919 9.80132 63.2144 9.78699C63.2704 9.75179 63.5136 9.61899 63.576 9.57899C63.68 9.51499 63.7328 9.37419 63.7248 9.15179Z" fill="#FCA43C"/>
<path opacity="0.15" d="M61.736 6.87978C61.8288 6.82538 62.0144 6.72778 62.056 6.69898L62.0832 6.67978C62.1111 6.66202 62.1412 6.64803 62.1728 6.63818L62.1824 6.90858C62.1175 6.86399 62.0418 6.83777 61.9632 6.8327C61.8846 6.82763 61.8061 6.8439 61.736 6.87978Z" fill="black"/>
<path opacity="0.45" d="M62.768 9.06876C62.768 9.18236 62.7072 9.23836 62.52 9.13596C62.4309 9.09082 62.353 9.02629 62.2921 8.9471C62.2312 8.86791 62.1888 8.77609 62.168 8.67836L61.624 8.54236L61.9872 8.33276L62.1472 8.37436H62.1568C62.2064 8.41916 62.256 8.46236 62.304 8.50236L62.3616 8.55036C62.4713 8.63308 62.5725 8.72632 62.664 8.82876C62.7017 8.87238 62.7305 8.92292 62.7488 8.97756C62.7602 9.00669 62.7667 9.03751 62.768 9.06876Z" fill="black"/>
<path opacity="0.2" d="M63.136 9.82548V9.94228L62.7728 10.1519L62.7584 9.77588C62.8759 9.83188 63.0081 9.84925 63.136 9.82548Z" fill="black"/>
<path opacity="0.15" d="M62.616 6.7791L62.1664 6.5199L62.5296 6.3103L62.9808 6.5695L62.9936 6.9455C63.1745 7.07211 63.332 7.2291 63.4592 7.4095C63.5378 7.52062 63.6013 7.64168 63.648 7.7695C63.6756 7.84512 63.6975 7.92266 63.7136 8.0015L63.3504 8.2111C63.3343 8.13226 63.3124 8.05472 63.2848 7.9791C63.2381 7.85128 63.1746 7.73022 63.096 7.6191C62.9688 7.4387 62.8113 7.28171 62.6304 7.1551L62.616 6.7791Z" fill="black"/>
<path opacity="0.2" d="M62.9936 6.94556C63.1498 7.03518 63.2881 7.15289 63.4016 7.29276C63.5178 7.43285 63.6019 7.59669 63.648 7.77276C63.5698 7.61219 63.4732 7.4613 63.36 7.32316C63.3042 7.25509 63.2449 7.18994 63.1824 7.12796C63.1264 7.06396 63.0592 7.00476 62.9936 6.94556Z" fill="black"/>
<path opacity="0.35" d="M63.5744 9.58217C63.512 9.62217 63.2688 9.75497 63.2128 9.79017C63.3184 9.72297 63.3728 9.58377 63.3632 9.35977C63.344 8.86537 63.0432 8.54217 62.736 8.27177C62.4288 8.00137 62.1872 7.86537 62.1776 7.63177C62.1776 7.48137 62.2688 7.47177 62.4176 7.55017C62.5119 7.6044 62.5931 7.67864 62.6556 7.76765C62.7181 7.85666 62.7603 7.95829 62.7792 8.06537L63.2256 8.18057C63.3706 8.30026 63.4897 8.44825 63.5755 8.61552C63.6613 8.78278 63.7121 8.9658 63.7248 9.15337C63.7328 9.37417 63.68 9.51497 63.5744 9.58217Z" fill="black"/>
<path d="M62.5312 8.46876L62.168 8.67836L61.624 8.54236L61.9872 8.33276L62.5312 8.46876Z" fill="#FCA43C"/>
<path opacity="0.15" d="M62.5312 8.46876L62.168 8.67836L61.624 8.54236L61.9872 8.33276L62.5312 8.46876Z" fill="black"/>
<path d="M62.7776 10.1519L62.7632 9.77588L63.136 9.82388L63.1408 9.94228L62.7776 10.1519Z" fill="#FCA43C"/>
<path opacity="0.45" d="M62.7776 10.1519L62.7632 9.77588L63.136 9.82388L63.1408 9.94228L62.7776 10.1519Z" fill="black"/>
<path d="M62.1696 6.61439L62.1808 6.90559C62.1133 6.85923 62.0342 6.83283 61.9524 6.82943C61.8706 6.82604 61.7895 6.84578 61.7184 6.88639L61.6912 6.90559C61.6351 6.95782 61.593 7.02324 61.5687 7.0959C61.5444 7.16856 61.5387 7.24614 61.552 7.32159C61.5612 7.52777 61.6241 7.72797 61.7344 7.90239C61.744 7.91679 61.7536 7.93119 61.7616 7.94559L61.792 7.98879L61.8208 8.02559L61.832 8.03999L61.8544 8.06879C61.9179 8.14366 61.9852 8.21522 62.056 8.28319L62.16 8.37759L62.3088 8.50559L62.3664 8.55359C62.476 8.63631 62.5773 8.72955 62.6688 8.83199C62.7074 8.87495 62.7363 8.92569 62.7536 8.98079C62.7616 9.00787 62.7665 9.03579 62.768 9.06399C62.768 9.17759 62.7072 9.23519 62.5184 9.12959C62.4292 9.08499 62.3512 9.02082 62.2902 8.94186C62.2293 8.8629 62.187 8.7712 62.1664 8.67359L61.6224 8.53759C61.7277 8.93556 61.9702 9.28352 62.3072 9.51999L62.3216 9.89599L62.776 10.1472L62.7616 9.77119C62.8296 9.80848 62.9053 9.82947 62.9827 9.83253C63.0602 9.83558 63.1373 9.82061 63.208 9.78879C63.3136 9.72159 63.368 9.58079 63.3584 9.35839C63.3392 8.86399 63.0384 8.54079 62.7312 8.27039C62.424 7.99999 62.1824 7.86559 62.1728 7.63039C62.1728 7.48159 62.2656 7.47039 62.4128 7.55039C62.5071 7.60462 62.5883 7.67886 62.6508 7.76787C62.7132 7.85688 62.7554 7.95851 62.7744 8.06559L63.3472 8.21439C63.3311 8.13555 63.3091 8.05801 63.2816 7.98239C63.2346 7.85421 63.1711 7.73267 63.0928 7.62079C62.9643 7.44196 62.8069 7.28571 62.6272 7.15839L62.6128 6.78239L62.1632 6.52319L62.1696 6.61439Z" fill="#FCA43C"/>
<path opacity="0.1" d="M62.1696 6.61439L62.1808 6.90559C62.1133 6.85923 62.0342 6.83283 61.9524 6.82943C61.8706 6.82604 61.7895 6.84578 61.7184 6.88639L61.6912 6.90559C61.6351 6.95782 61.593 7.02324 61.5687 7.0959C61.5444 7.16856 61.5387 7.24614 61.552 7.32159C61.5612 7.52777 61.6241 7.72797 61.7344 7.90239C61.744 7.91679 61.7536 7.93119 61.7616 7.94559L61.792 7.98879L61.8208 8.02559L61.832 8.03999L61.8544 8.06879C61.9179 8.14366 61.9852 8.21522 62.056 8.28319L62.16 8.37759L62.3088 8.50559L62.3664 8.55359C62.476 8.63631 62.5773 8.72955 62.6688 8.83199C62.7074 8.87495 62.7363 8.92569 62.7536 8.98079C62.7616 9.00787 62.7665 9.03579 62.768 9.06399C62.768 9.17759 62.7072 9.23519 62.5184 9.12959C62.4292 9.08499 62.3512 9.02082 62.2902 8.94186C62.2293 8.8629 62.187 8.7712 62.1664 8.67359L61.6224 8.53759C61.7277 8.93556 61.9702 9.28352 62.3072 9.51999L62.3216 9.89599L62.776 10.1472L62.7616 9.77119C62.8296 9.80848 62.9053 9.82947 62.9827 9.83253C63.0602 9.83558 63.1373 9.82061 63.208 9.78879C63.3136 9.72159 63.368 9.58079 63.3584 9.35839C63.3392 8.86399 63.0384 8.54079 62.7312 8.27039C62.424 7.99999 62.1824 7.86559 62.1728 7.63039C62.1728 7.48159 62.2656 7.47039 62.4128 7.55039C62.5071 7.60462 62.5883 7.67886 62.6508 7.76787C62.7132 7.85688 62.7554 7.95851 62.7744 8.06559L63.3472 8.21439C63.3311 8.13555 63.3091 8.05801 63.2816 7.98239C63.2346 7.85421 63.1711 7.73267 63.0928 7.62079C62.9643 7.44196 62.8069 7.28571 62.6272 7.15839L62.6128 6.78239L62.1632 6.52319L62.1696 6.61439Z" fill="white"/>
<path d="M63.36 9.3616C63.3482 9.18114 63.2974 9.00538 63.2112 8.8464C63.1234 8.68925 63.0117 8.54674 62.88 8.424C62.752 8.2976 62.608 8.1856 62.4704 8.0688C62.3995 8.01099 62.3342 7.94671 62.2752 7.8768C62.2157 7.80673 62.1808 7.71903 62.176 7.6272C62.1845 7.71789 62.2234 7.80305 62.2864 7.8688C62.3457 7.93658 62.4116 7.99823 62.4832 8.0528C62.624 8.1664 62.768 8.2784 62.8976 8.4048C63.0309 8.53011 63.1433 8.67596 63.2304 8.8368C63.2723 8.91771 63.305 9.00304 63.328 9.0912C63.3473 9.1801 63.358 9.27065 63.36 9.3616Z" fill="white"/>
<path d="M62.6176 6.77918L62.9808 6.56958L62.9936 6.94558L62.6304 7.15518L62.6176 6.77918Z" fill="#FCA43C"/>
<path opacity="0.35" d="M62.6176 6.77918L62.9808 6.56958L62.9936 6.94558L62.6304 7.15518L62.6176 6.77918Z" fill="black"/>
<path d="M62.1664 6.51978L62.576 6.80138L62.6304 7.15498L62.6176 6.77898L62.1664 6.51978Z" fill="#FAFAFA"/>
<path d="M62.3088 9.52466L62.36 9.87666L62.7776 10.1519L62.3232 9.90066L62.3088 9.52466Z" fill="#FAFAFA"/>
<path opacity="0.15" d="M61.624 8.54224C61.6421 8.61133 61.6645 8.6792 61.6912 8.74544L61.84 8.59664L61.624 8.54224Z" fill="white"/>
<path opacity="0.15" d="M63.36 9.34543C63.3505 9.1464 63.2917 8.95286 63.1888 8.78223L62.3136 9.65583L62.3232 9.90063L62.6336 10.0798L62.7696 9.94383V9.78383C62.8101 9.80031 62.8518 9.81368 62.8944 9.82383L63.36 9.34543Z" fill="white"/>
<path opacity="0.15" d="M61.5568 7.39511C61.5678 7.50974 61.5964 7.622 61.6416 7.72791L62.6016 6.76791L62.3376 6.60791L62.1776 6.76791V6.89751C62.15 6.87904 62.1205 6.86349 62.0896 6.85111L61.5568 7.39511Z" fill="white"/>
<path opacity="0.15" d="M61.76 7.95037L61.7904 7.99357L61.8192 8.03037L61.8304 8.04477L61.8528 8.07357C61.9163 8.14844 61.9836 8.22001 62.0544 8.28797L62.1024 8.33117L62.4224 8.01117C62.3567 7.96733 62.3008 7.91024 62.2583 7.84357C62.2159 7.7769 62.1879 7.7021 62.176 7.62397C62.176 7.47517 62.2688 7.46397 62.416 7.54397C62.5148 7.59948 62.5988 7.67796 62.6608 7.77277L62.9728 7.45277C62.8707 7.33723 62.7558 7.23364 62.6304 7.14397V7.00317L61.7392 7.89277L61.7648 7.93437L61.76 7.95037Z" fill="white"/>
</svg>
