<svg width="404" height="275" viewBox="0 0 404 275" fill="none" xmlns="http://www.w3.org/2000/svg">
<path d="M109.317 105.765C109.317 105.765 106.241 103.246 101.418 110.715C96.5948 118.184 94.6007 122.6 94.6007 122.6C94.6007 122.6 93.3702 124.146 92.3484 122.947C91.3267 121.748 90.0797 118.519 88.0966 118.877C86.1135 119.234 85.1467 121.412 85.1961 124.734C85.2455 128.056 85.0698 135.349 85.0533 136.004C85.0368 136.658 84.5754 137.56 83.7459 136.856C82.9164 136.152 78.3734 129.91 75.5443 132.247C72.7153 134.585 74.3633 143.797 74.5226 144.837C74.6819 145.876 74.4511 146.25 73.9732 146.448C73.4953 146.646 72.1494 144.402 70.7871 142.681C69.4247 140.959 67.535 139.199 66.0189 140.684C64.5027 142.169 63.3766 148.857 68.6612 160.457L71.4628 165.671L77.3901 165.946C90.1236 165.764 95.6829 161.887 96.375 159.896C97.0672 157.905 94.6721 156.937 92.5297 156.436C90.3873 155.936 87.7999 155.699 87.767 155.166C87.734 154.632 87.9922 154.253 88.9755 153.961C89.9588 153.67 99.0063 151.211 99.9018 147.653C100.797 144.094 93.2219 142.653 92.2111 142.208C91.2003 141.762 91.843 140.948 92.4198 140.657C92.9966 140.365 99.5117 137.087 102.533 135.707C105.554 134.326 107.131 132.594 106.582 130.575C106.032 128.557 102.61 128.881 101.088 128.469C99.5667 128.056 100.435 126.269 100.435 126.269C100.435 126.269 103.555 122.584 108.246 115.016C112.937 107.448 109.246 105.715 109.246 105.715" fill="#EBEBEB"/>
<path d="M70.4135 166.65C73.8798 161.106 80.2027 151.349 85.5916 142.95C90.9806 134.552 95.8477 126.94 99.325 121.412L103.456 114.862L104.555 113.08L104.851 112.618C104.917 112.513 104.956 112.464 104.956 112.464L104.868 112.629C104.796 112.739 104.703 112.898 104.588 113.096L103.489 114.895C102.539 116.457 101.143 118.706 99.4074 121.495C95.9411 127.044 91.0905 134.662 85.7015 143.066C80.3125 151.47 73.9732 161.216 70.4795 166.716" fill="#E0E0E0"/>
<path d="M89.6677 123.469C89.7165 123.605 89.7515 123.745 89.7721 123.887C89.8325 124.157 89.9039 124.547 89.9918 125.031C90.1621 125.999 90.3598 127.341 90.5411 128.832C90.7224 130.322 90.8982 131.626 91.0245 132.638C91.085 133.094 91.1399 133.479 91.1783 133.793C91.2066 133.932 91.2214 134.074 91.2223 134.216C91.1641 134.085 91.1253 133.946 91.1069 133.804C91.052 133.534 90.9806 133.144 90.8982 132.66C90.7389 131.686 90.5521 130.339 90.3489 128.854C90.1456 127.369 89.9698 126.065 89.838 125.048L89.6732 123.898C89.6527 123.756 89.6509 123.612 89.6677 123.469Z" fill="#E0E0E0"/>
<path d="M91.7661 134.376C91.7661 134.326 94.5128 133.793 97.9077 133.177C101.303 132.561 104.071 132.11 104.077 132.159C104.082 132.209 101.33 132.748 97.9406 133.358C94.5513 133.969 91.7771 134.425 91.7661 134.376Z" fill="#E0E0E0"/>
<path d="M82.9109 146.905C83.0569 146.889 83.2043 146.889 83.3503 146.905L84.5259 147.031C85.5257 147.136 86.899 147.273 88.4262 147.372C89.9533 147.471 91.3322 147.515 92.332 147.537H93.5185C93.664 147.528 93.8102 147.539 93.9525 147.57C93.8092 147.596 93.664 147.609 93.5185 147.609C93.2384 147.609 92.8318 147.609 92.332 147.609C91.3267 147.609 89.9424 147.609 88.4097 147.499C86.8771 147.389 85.5037 147.246 84.5094 147.108C84.015 147.037 83.614 146.976 83.3394 146.921C83.1963 146.929 83.0529 146.923 82.9109 146.905Z" fill="#E0E0E0"/>
<path d="M78.8458 137.456C78.9212 137.569 78.9856 137.688 79.0381 137.813L79.516 138.803C79.906 139.639 80.4389 140.805 81.0157 142.103C81.5925 143.401 82.1143 144.573 82.4659 145.403L82.8834 146.415C82.9439 146.537 82.9882 146.667 83.0152 146.8C82.9348 146.69 82.8684 146.57 82.8175 146.443L82.3451 145.453C81.955 144.617 81.4222 143.451 80.8454 142.153C80.2686 140.855 79.7467 139.689 79.3951 138.853C79.2303 138.457 79.0875 138.116 78.9777 137.841C78.9172 137.719 78.8729 137.589 78.8458 137.456Z" fill="#E0E0E0"/>
<path d="M69.6225 147.526C69.719 147.669 69.8018 147.82 69.8697 147.977L70.485 149.248C70.9903 150.32 71.6825 151.805 72.4406 153.455C73.1987 155.105 73.8634 156.601 74.3468 157.69C74.572 158.207 74.7588 158.642 74.8961 158.983C74.9741 159.138 75.0366 159.3 75.0829 159.467C74.9863 159.323 74.9035 159.17 74.8357 159.01L74.2204 157.745C73.715 156.645 73.0229 155.182 72.2648 153.532C71.5067 151.882 70.8365 150.386 70.3586 149.297L69.8093 148.01C69.7334 147.855 69.6709 147.693 69.6225 147.526Z" fill="#E0E0E0"/>
<path d="M75.0334 159.142C75.2163 159.128 75.3999 159.128 75.5828 159.142L77.0825 159.247C78.3514 159.335 80.1038 159.445 82.0265 159.516C83.9491 159.588 85.718 159.61 86.9705 159.615H88.4756C88.6584 159.599 88.8422 159.599 89.025 159.615C88.8433 159.645 88.6597 159.662 88.4756 159.665C88.1241 159.665 87.6077 159.703 86.9705 159.714C85.7015 159.714 83.9436 159.714 82.0265 159.67C80.1093 159.626 78.3349 159.461 77.0825 159.346L75.5883 159.181C75.4026 159.183 75.2171 159.17 75.0334 159.142Z" fill="#E0E0E0"/>
<path d="M60.9266 126.742C60.9538 127.649 60.9023 128.556 60.7727 129.453C60.4378 132.018 59.5996 134.491 58.3062 136.73L58.2513 136.631H58.3667L58.3117 136.73L42.9304 164.048L42.837 164.219L42.7271 164.054L26.4669 138.077L25.6649 136.796L25.5385 136.598H25.7747L25.6649 136.796C24.4329 134.679 23.6023 132.352 23.2148 129.932C23.018 128.753 22.9352 127.558 22.9676 126.362L23.0665 124.597C23.1544 124.014 23.2423 123.436 23.3247 122.859C24.1974 118.429 26.5374 114.424 29.9661 111.49C31.5672 110.162 33.3722 109.102 35.3111 108.35L36.0198 108.086L36.3714 107.954L36.7339 107.855L38.1677 107.481C39.1143 107.299 40.0725 107.183 41.0352 107.134C41.9636 107.085 42.8943 107.101 43.8203 107.184C44.2763 107.222 44.7212 107.321 45.1662 107.382L45.8254 107.492C46.0396 107.536 46.2539 107.602 46.4681 107.657L47.7261 107.998L48.9181 108.454C49.1159 108.531 49.3137 108.597 49.5059 108.68L50.0553 108.96L51.1539 109.51C53.663 110.969 55.82 112.963 57.4713 115.351C58.7005 117.154 59.6282 119.146 60.2179 121.247C60.4316 122.013 60.5931 122.792 60.7013 123.579C60.8043 124.152 60.8667 124.731 60.8881 125.312C60.8881 125.774 60.8881 126.131 60.9266 126.384C60.965 126.637 60.9266 126.747 60.9266 126.747C60.9266 126.747 60.9266 126.621 60.9266 126.384C60.9266 126.148 60.8936 125.779 60.8661 125.317C60.8332 124.738 60.7635 124.161 60.6574 123.59C60.5386 122.809 60.3698 122.035 60.152 121.275C59.5547 119.193 58.6273 117.221 57.4053 115.434C55.7475 113.07 53.5908 111.101 51.088 109.664L49.9893 109.114L49.44 108.845C49.2532 108.757 49.0555 108.696 48.8577 108.619L47.6766 108.168L46.4297 107.838C46.2209 107.783 46.0122 107.717 45.7979 107.673L45.1442 107.569C44.7047 107.508 44.2653 107.415 43.8148 107.376C42.9014 107.298 41.9835 107.285 41.0682 107.338C40.1163 107.387 39.1691 107.502 38.2336 107.684L36.8163 108.058L36.4593 108.157L36.1132 108.284L35.4155 108.548C33.4925 109.288 31.7022 110.336 30.1145 111.65C26.7258 114.556 24.4181 118.524 23.5664 122.908C23.484 123.458 23.3961 124.047 23.3137 124.619C23.2313 125.191 23.2478 125.779 23.2203 126.368C23.189 127.548 23.2699 128.729 23.462 129.893C23.8468 132.279 24.6661 134.574 25.8791 136.664L25.9945 136.862H25.7692L25.8791 136.664C26.1318 137.071 26.4284 137.505 26.6756 137.945L42.9249 163.938H42.7217C49.1928 152.542 54.5927 143.038 58.1964 136.669L58.2568 136.768H58.1359L58.1909 136.669C59.4864 134.447 60.3407 131.995 60.7068 129.448C60.8332 128.573 60.8661 127.891 60.8991 127.44C60.8991 127.215 60.8991 127.044 60.8991 126.923C60.8991 126.802 60.9266 126.742 60.9266 126.742Z" fill="#E0E0E0"/>
<path d="M54.0269 126.5C54.0213 126.436 54.0213 126.371 54.0269 126.307C54.0269 126.164 54.0269 125.977 53.983 125.757C53.983 125.631 53.983 125.493 53.983 125.339C53.983 125.185 53.9335 125.015 53.9061 124.833C53.8498 124.416 53.7654 124.002 53.6534 123.596C53.3716 122.474 52.9235 121.401 52.324 120.411C50.9089 118.029 48.709 116.214 46.1023 115.28C43.4957 114.345 40.6453 114.349 38.0413 115.291C37.5084 115.481 36.989 115.707 36.4867 115.967C35.9792 116.246 35.491 116.558 35.0255 116.902C34.5512 117.257 34.0998 117.641 33.6741 118.052C33.2537 118.483 32.8628 118.943 32.5041 119.427C31.7626 120.429 31.1859 121.543 30.7956 122.727C29.9791 125.166 29.9791 127.806 30.7956 130.245C31.1749 131.431 31.7465 132.546 32.4876 133.545C32.8425 134.033 33.2297 134.496 33.6467 134.931C34.0716 135.343 34.5211 135.729 34.9925 136.086C35.458 136.432 35.9462 136.747 36.4538 137.027C36.9224 137.275 37.4069 137.492 37.904 137.676C40.5063 138.628 43.3583 138.645 45.9717 137.724C48.5852 136.803 50.7977 135.001 52.2306 132.627C52.8398 131.643 53.2938 130.571 53.5765 129.448C53.6927 129.042 53.779 128.629 53.8347 128.21C53.8347 128.029 53.8951 127.864 53.9171 127.71V127.286C53.9171 127.05 53.95 126.857 53.961 126.736C53.9551 126.671 53.9551 126.604 53.961 126.538C53.9683 126.604 53.9683 126.671 53.961 126.736C53.961 126.879 53.961 127.066 53.961 127.286V127.71C53.961 127.864 53.9171 128.034 53.8951 128.216C53.8447 128.639 53.7658 129.058 53.6589 129.47C53.3871 130.607 52.9424 131.696 52.3405 132.698C50.9032 135.126 48.6637 136.974 46.0094 137.923C43.3552 138.872 40.4531 138.863 37.8051 137.896C36.7022 137.509 35.6662 136.952 34.7343 136.246C34.2484 135.886 33.7877 135.492 33.3555 135.069C32.9393 134.623 32.5538 134.149 32.2019 133.65C31.4468 132.632 30.8606 131.5 30.466 130.295C30.0712 129.049 29.8638 127.752 29.8508 126.445C29.8684 125.137 30.0833 123.839 30.488 122.595C30.8865 121.393 31.4764 120.264 32.2349 119.251C32.6028 118.756 33.0028 118.285 33.4324 117.843C33.8692 117.426 34.3315 117.036 34.8167 116.677C35.2934 116.327 35.7925 116.009 36.3109 115.725C36.8263 115.469 37.3585 115.249 37.904 115.065C40.5565 114.112 43.4582 114.117 46.1073 115.079C48.7565 116.042 50.9866 117.9 52.4119 120.334C53.006 121.343 53.445 122.435 53.7138 123.574C53.8202 123.984 53.8955 124.401 53.939 124.822C53.939 125.009 53.994 125.174 54.005 125.334C54.0159 125.493 54.005 125.625 54.005 125.752C54.005 125.994 54.005 126.186 54.005 126.329C54.017 126.386 54.0243 126.443 54.0269 126.5Z" fill="#E0E0E0"/>
<path d="M41.7658 132.126L34.7728 127.248L36.4757 124.806L41.1615 128.078L47.2262 120.362L49.5609 122.204L41.7658 132.126Z" fill="#E0E0E0"/>
<path fill-rule="evenodd" clip-rule="evenodd" d="M237.356 41.7284C239.4 41.9838 241.401 42.511 243.305 43.2959L247.672 39.6329L255.176 45.3529L252.814 50.5449C254.077 52.1733 255.118 53.9616 255.912 55.8634L261.587 56.3639L262.856 65.7139L257.516 67.7104C257.266 69.7689 256.737 71.7837 255.945 73.6999L259.609 78.0999L253.896 85.6184L248.711 83.2479C247.086 84.5138 245.299 85.557 243.399 86.3499L242.899 92.0314L233.56 93.3019L231.566 87.9559C229.518 87.6892 227.516 87.149 225.611 86.3499L221.217 90.0129L213.713 84.2929L216.08 79.101C214.815 77.4747 213.773 75.6859 212.982 73.7824L207.307 73.2819L206.038 63.9319L211.372 61.9299C211.63 59.8853 212.158 57.884 212.944 55.9789L209.296 51.5844L215.004 44.0659L220.195 46.4364C221.82 45.1714 223.607 44.1283 225.507 43.3344L226.007 37.6529L235.345 36.3824L237.339 41.7284H237.356ZM234.565 54.6314C232.477 54.6989 230.461 55.412 228.793 56.6728C227.126 57.9337 225.889 59.6804 225.253 61.6731C224.617 63.6659 224.613 65.8069 225.241 67.8022C225.869 69.7975 227.098 71.5492 228.761 72.8168C230.423 74.0844 232.436 74.8056 234.524 74.8815C236.613 74.9574 238.673 74.3842 240.423 73.2407C242.172 72.0971 243.526 70.4393 244.296 68.4948C245.067 66.5503 245.218 64.4146 244.728 62.3809C244.181 60.1168 242.872 58.1102 241.022 56.6988C239.171 55.2874 236.891 54.5574 234.565 54.6314Z" fill="#F5F5F5"/>
<path fill-rule="evenodd" clip-rule="evenodd" d="M152.248 71.6429C153.569 71.8116 154.862 72.1557 156.093 72.6659L158.928 70.2845L163.8 73.9969L162.268 77.3685C163.088 78.4255 163.764 79.587 164.278 80.8224L167.964 81.1469L168.783 87.1969L165.322 88.4949C165.152 89.8177 164.809 91.1123 164.3 92.3449L166.679 95.183L162.982 100.1L159.614 98.5655C158.559 99.386 157.399 100.061 156.164 100.573L155.84 104.263L149.798 105.088L148.501 101.618C147.18 101.453 145.886 101.11 144.656 100.6L141.821 102.982L136.949 99.2695L138.487 95.898C137.665 94.8422 136.989 93.6805 136.476 92.444L132.79 92.1195L131.966 86.042L135.433 84.7494C135.599 83.4266 135.941 82.1319 136.449 80.8994L134.037 78.0449L137.745 73.1665L141.113 74.701C142.167 73.8807 143.325 73.2038 144.557 72.688L144.881 68.9974L150.951 68.2L152.248 71.665V71.6429ZM150.424 80.0195C149.061 80.0584 147.745 80.5192 146.654 81.3384C145.564 82.1577 144.755 83.2951 144.337 84.5942C143.919 85.8932 143.914 87.2899 144.322 88.592C144.73 89.8941 145.531 91.0376 146.615 91.8651C147.699 92.6926 149.012 93.1633 150.374 93.2125C151.736 93.2617 153.08 92.8869 154.221 92.1397C155.362 91.3926 156.243 90.3098 156.743 89.0405C157.244 87.7712 157.339 86.3777 157.016 85.052C156.658 83.5845 155.809 82.2843 154.609 81.3684C153.409 80.4525 151.932 79.9764 150.424 80.0195Z" fill="#EBEBEB"/>
<path d="M203.154 116.05C203.962 116.409 204.704 116.9 205.352 117.502C207.169 119.131 208.368 121.338 208.747 123.75C209.015 125.417 208.887 127.124 208.373 128.733C207.775 130.587 206.692 132.247 205.236 133.54C204.457 134.244 203.573 134.823 202.616 135.256C201.626 135.728 200.567 136.038 199.479 136.174C197.178 136.492 194.836 136.06 192.799 134.941C190.762 133.823 189.139 132.078 188.169 129.965C187.696 128.975 187.386 127.914 187.251 126.824C187.104 125.782 187.117 124.723 187.29 123.684C187.599 121.761 188.414 119.956 189.652 118.453C190.731 117.154 192.101 116.129 193.651 115.461C195.89 114.48 198.4 114.305 200.754 114.966C201.609 115.199 202.42 115.57 203.154 116.066C203.121 116.132 202.314 115.632 200.693 115.225C198.396 114.669 195.978 114.899 193.827 115.879C192.364 116.546 191.077 117.546 190.069 118.8C188.908 120.24 188.15 121.964 187.872 123.794C187.568 125.816 187.868 127.882 188.734 129.734C189.658 131.721 191.192 133.361 193.112 134.415C195.032 135.468 197.238 135.881 199.408 135.591C200.438 135.467 201.442 135.177 202.38 134.733C203.291 134.331 204.132 133.787 204.874 133.122C206.18 131.984 207.181 130.537 207.785 128.912C208.39 127.288 208.579 125.538 208.335 123.821C207.993 121.488 206.886 119.334 205.187 117.7C203.973 116.523 203.111 116.11 203.154 116.05Z" fill="#EBEBEB"/>
<path d="M214.482 107.481C214.502 107.358 214.53 107.237 214.564 107.118C214.636 106.848 214.729 106.485 214.85 106.018L216.036 101.7L216.08 101.81L207.379 97.0969L207.566 97.0639L203.627 101.563L203.555 101.645L203.451 101.618C201.368 101.113 199.227 100.886 197.084 100.941H196.963L196.903 100.837C195.997 99.1869 195.013 97.4434 193.986 95.6064L194.239 95.7109L184.746 98.5049L184.917 98.2574C185.037 100.111 185.164 102.146 185.296 104.236V104.39L185.164 104.467C183.345 105.575 181.683 106.922 180.22 108.471L180.11 108.586L179.956 108.542L174.205 106.892L174.518 106.766L169.744 115.5L169.684 115.148L174.161 119.113L174.292 119.229L174.254 119.399C173.753 121.465 173.529 123.589 173.589 125.713V125.889L173.43 125.977L168.2 128.887L168.343 128.54L171.112 138.05L170.804 137.835L176.77 137.467H176.957L177.05 137.626C178.153 139.446 179.492 141.11 181.033 142.576C181.071 142.714 180.956 142.274 181.121 142.884V142.917V142.961V143.055L181.066 143.236L180.961 143.594L180.758 144.32L180.341 145.761C180.066 146.723 179.791 147.68 179.522 148.632L179.374 148.28L188.048 153.048L187.68 153.109L191.64 148.632L191.717 148.5L191.893 148.544C193.964 149.056 196.094 149.291 198.227 149.242H198.408L198.491 149.396C199.476 151.167 200.443 152.915 201.391 154.638L201.056 154.5L210.554 151.75L210.356 152.036C210.235 150.012 210.115 148.016 209.999 146.063V145.893L210.142 145.81C211.973 144.709 213.648 143.368 215.124 141.823L215.234 141.707L215.388 141.751L221.129 143.401L220.837 143.522L225.617 134.849L225.666 135.135L221.2 131.158L221.101 131.07L221.129 130.944C221.65 128.864 221.89 126.724 221.843 124.58V124.459L221.947 124.399L227.182 121.511L227.1 121.72C226.045 118.03 225.144 114.889 224.353 112.2L224.496 112.293L218.525 112.623H218.464L218.431 112.574C217.607 111.179 216.646 109.869 215.564 108.663L214.751 107.783C214.654 107.691 214.564 107.592 214.482 107.486C214.589 107.565 214.689 107.652 214.784 107.745C214.982 107.926 215.273 108.201 215.641 108.592C216.76 109.78 217.752 111.081 218.602 112.475L218.514 112.425L224.48 112.024H224.584L224.617 112.134C225.413 114.818 226.342 117.953 227.43 121.632L227.468 121.77L227.342 121.836L222.123 124.762L222.227 124.58C222.288 126.761 222.057 128.94 221.541 131.059L221.469 130.839L225.957 134.799L226.1 134.92L226.007 135.085L221.266 143.781L221.167 143.957L220.975 143.902L215.223 142.252L215.487 142.18C213.984 143.766 212.275 145.142 210.406 146.272L210.537 146.025C210.658 147.979 210.783 149.97 210.911 151.998V152.223L210.697 152.284L201.204 155.067L200.979 155.133L200.869 154.929L197.963 149.693L198.227 149.847C196.041 149.902 193.857 149.666 191.734 149.143L192.03 149.05L188.07 153.532L187.91 153.714L187.702 153.598L179.022 148.835L178.808 148.72L178.879 148.483C179.15 147.534 179.423 146.579 179.698 145.618L180.11 144.171L180.319 143.451L180.423 143.088L180.472 142.906L180.5 142.818V142.769V142.736C180.665 143.346 180.544 142.906 180.582 143.038C179.001 141.528 177.629 139.814 176.501 137.94L176.781 138.088L170.81 138.451H170.568L170.502 138.22L167.755 128.711L167.689 128.48L167.898 128.364L173.128 125.466L172.98 125.73C172.925 123.543 173.163 121.358 173.688 119.234L173.782 119.52C172.227 118.14 170.7 116.77 169.305 115.549L169.14 115.395L169.244 115.197L174.018 106.518L174.122 106.326L174.331 106.386L180.071 108.036L179.808 108.108C181.319 106.532 183.031 105.161 184.9 104.032L184.779 104.263C184.658 102.179 184.538 100.138 184.428 98.2904V98.0979L184.614 98.0429L194.118 95.2929L194.283 95.2434L194.365 95.3974C195.381 97.2344 196.354 99.0054 197.255 100.639L197.073 100.54C199.249 100.491 201.422 100.735 203.534 101.266L203.358 101.321L207.335 96.8549L207.417 96.7614L207.527 96.8219L216.174 101.634L216.245 101.673V101.75C215.696 103.592 215.267 105.017 214.971 106.001L214.636 107.101C214.596 107.232 214.545 107.359 214.482 107.481Z" fill="#EBEBEB"/>
<path d="M237.74 117.425L229.121 83.105L264.196 82.522L237.74 117.425Z" fill="#EBEBEB"/>
<path d="M253.608 89.1783L241.561 105.074L305.769 153.852L317.815 137.956L253.608 89.1783Z" fill="#EBEBEB"/>
<path d="M300.485 205.15L304.94 215.265C304.94 215.265 296.151 223.196 296.81 225.165L316.707 217.217L310.412 201.174L300.485 205.15Z" fill="#FCA43C"/>
<path opacity="0.5" d="M300.485 205.15L304.94 215.265C304.94 215.265 296.151 223.196 296.81 225.165L316.707 217.217L310.412 201.174L300.485 205.15Z" fill="black"/>
<path d="M316.707 217.212L316.009 215.6L297.189 223.85C297.189 223.85 296.459 224.587 296.805 225.176L316.707 217.212Z" fill="#263238"/>
<path d="M335.522 219.489L341.103 229.031C341.103 229.031 333.292 237.908 334.149 239.8L353.013 229.636L344.932 214.39L335.522 219.489Z" fill="#FCA43C"/>
<path opacity="0.5" d="M335.522 219.489L341.103 229.031C341.103 229.031 333.292 237.908 334.149 239.8L353.013 229.636L344.932 214.39L335.522 219.489Z" fill="black"/>
<path d="M353.013 229.609L352.123 228.107L334.379 238.414C334.379 238.414 333.736 239.234 334.148 239.773L353.013 229.609Z" fill="#263238"/>
<path d="M311.186 85.6735L298.958 86.6305L298.552 79.7775C298.552 79.7775 293.608 79.706 292.883 74.8825C292.157 70.059 291.421 58.85 291.421 58.85C293.999 57.2839 296.948 56.4353 299.963 56.3918C302.978 56.3483 305.95 57.1115 308.571 58.6025L309.363 59.0535L311.186 85.6735Z" fill="#FFBE9D"/>
<path d="M298.535 79.7061C300.77 79.435 302.873 78.5046 304.578 77.0331C304.578 77.0331 303.512 80.8281 298.634 81.0701L298.535 79.7061Z" fill="#EB996E"/>
<path d="M309.472 64.1356C309.549 64.0861 312.653 62.6836 313.01 66.0056C313.367 69.3276 309.967 68.9976 309.95 68.9041C309.934 68.8106 309.472 64.1356 309.472 64.1356Z" fill="#FFBE9D"/>
<path d="M310.829 67.5345C310.829 67.5345 310.89 67.5675 310.994 67.606C311.137 67.649 311.29 67.6352 311.423 67.5675C311.627 67.411 311.786 67.2024 311.883 66.9634C311.979 66.7245 312.01 66.464 311.972 66.209C311.952 65.9243 311.867 65.6478 311.725 65.4005C311.682 65.3005 311.616 65.2122 311.531 65.1433C311.447 65.0743 311.348 65.0267 311.241 65.0045C311.173 64.9944 311.103 65.0086 311.043 65.0448C310.984 65.081 310.94 65.1368 310.917 65.2025C310.884 65.296 310.917 65.362 310.917 65.3675C310.917 65.373 310.84 65.3235 310.851 65.1805C310.861 65.0966 310.9 65.0188 310.961 64.9605C311.001 64.9202 311.049 64.8886 311.102 64.8678C311.155 64.847 311.212 64.8374 311.269 64.8395C311.408 64.8526 311.541 64.9009 311.657 64.9798C311.772 65.0587 311.865 65.1656 311.928 65.2905C312.101 65.5621 312.204 65.8717 312.23 66.1925C312.277 66.4865 312.237 66.7879 312.114 67.0589C311.991 67.3299 311.79 67.5585 311.538 67.716C311.451 67.7549 311.355 67.7726 311.26 67.7678C311.165 67.763 311.072 67.7359 310.989 67.6885C310.84 67.617 310.818 67.5455 310.829 67.5345Z" fill="#EB996E"/>
<path d="M293.503 66.44C293.528 66.6196 293.621 66.7825 293.764 66.8944C293.906 67.0063 294.087 67.0583 294.267 67.0395C294.356 67.0347 294.442 67.012 294.522 66.9729C294.602 66.9337 294.672 66.8788 294.73 66.8115C294.788 66.7443 294.832 66.666 294.859 66.5813C294.886 66.4967 294.896 66.4075 294.888 66.319C294.866 66.1388 294.774 65.9745 294.632 65.8614C294.49 65.7483 294.31 65.6954 294.13 65.714C294.04 65.7195 293.953 65.7428 293.873 65.7825C293.794 65.8222 293.722 65.8775 293.664 65.9451C293.606 66.0127 293.561 66.0914 293.534 66.1763C293.506 66.2613 293.496 66.351 293.503 66.44Z" fill="#263238"/>
<path d="M293.289 65.5161C293.388 65.5931 293.838 65.1311 294.597 65.0321C295.355 64.9331 295.937 65.2246 296.003 65.1201C296.069 65.0156 295.926 64.9221 295.668 64.7846C295.314 64.6091 294.916 64.5457 294.525 64.6031C294.139 64.6561 293.78 64.8293 293.498 65.0981C293.295 65.3071 293.245 65.4831 293.289 65.5161Z" fill="#263238"/>
<path d="M300.716 65.604C300.741 65.7836 300.834 65.9466 300.977 66.0585C301.119 66.1703 301.3 66.2224 301.48 66.2035C301.568 66.198 301.654 66.1748 301.734 66.1354C301.813 66.096 301.884 66.0411 301.941 65.974C301.999 65.9069 302.043 65.8289 302.07 65.7446C302.098 65.6603 302.108 65.5714 302.1 65.483C302.077 65.3035 301.985 65.14 301.843 65.0272C301.702 64.9143 301.522 64.8608 301.342 64.878C301.253 64.8836 301.166 64.9069 301.086 64.9466C301.006 64.9863 300.935 65.0415 300.877 65.1092C300.818 65.1768 300.774 65.2554 300.746 65.3404C300.719 65.4254 300.709 65.515 300.716 65.604Z" fill="#263238"/>
<path d="M300.601 64.625C300.7 64.7075 301.15 64.2455 301.908 64.141C302.666 64.0365 303.243 64.3335 303.314 64.2345C303.386 64.1355 303.238 64.0365 302.974 63.899C302.624 63.7189 302.226 63.6535 301.837 63.712C301.45 63.7655 301.09 63.9408 300.809 64.2125C300.606 64.4215 300.551 64.592 300.601 64.625Z" fill="#263238"/>
<path d="M298.683 70.51C298.275 70.4474 297.86 70.4326 297.447 70.466C297.255 70.466 297.068 70.466 297.019 70.334C296.981 70.1498 296.998 69.9585 297.068 69.784C297.178 69.3 297.299 68.7885 297.426 68.2605C297.773 66.9641 298.016 65.6416 298.151 64.306C297.7 65.5704 297.351 66.8689 297.107 68.189L296.777 69.718C296.687 69.963 296.687 70.232 296.777 70.477C296.814 70.5401 296.865 70.5938 296.926 70.6339C296.987 70.6739 297.056 70.6993 297.129 70.708C297.236 70.7247 297.346 70.7247 297.453 70.708C297.87 70.6947 298.283 70.6281 298.683 70.51Z" fill="#263238"/>
<path d="M300.936 70.7191C300.815 70.7191 300.936 71.5331 300.315 72.2041C299.694 72.8751 298.837 72.9026 298.848 73.0181C298.859 73.1336 299.063 73.1501 299.425 73.1061C299.897 73.0467 300.333 72.8227 300.656 72.4736C300.967 72.1382 301.135 71.6939 301.123 71.2361C301.106 70.8951 300.991 70.7081 300.936 70.7191Z" fill="#263238"/>
<path d="M299.996 61.7431C300.101 61.9356 300.826 61.7431 301.71 61.7431C302.595 61.7431 303.358 61.8641 303.424 61.6661C303.463 61.5726 303.314 61.3966 303.001 61.2426C302.591 61.051 302.141 60.9605 301.688 60.9786C301.236 60.9899 300.792 61.1067 300.392 61.3196C300.095 61.4736 299.936 61.6551 299.996 61.7431Z" fill="#263238"/>
<path d="M293.262 63.327C293.415 63.4755 293.904 63.2335 294.514 63.1345C295.124 63.0355 295.668 63.0905 295.761 62.898C295.8 62.8045 295.695 62.645 295.448 62.5185C295.116 62.3665 294.746 62.3204 294.388 62.3865C294.027 62.4407 293.692 62.6083 293.432 62.8651C293.24 63.0686 293.19 63.25 293.262 63.327Z" fill="#263238"/>
<path d="M288.642 56.1276C288.568 55.8322 288.569 55.523 288.644 55.2281C288.72 54.9332 288.868 54.6619 289.076 54.4391C289.294 54.2296 289.579 54.1043 289.881 54.0851C290.182 54.066 290.481 54.1544 290.724 54.3345C290.651 54.139 290.62 53.9303 290.632 53.7219C290.645 53.5135 290.7 53.3101 290.796 53.1246C290.892 52.9392 291.025 52.7758 291.188 52.6451C291.35 52.5144 291.538 52.4191 291.74 52.3655C292.52 52.206 293.278 52.7066 294.069 52.8056C294.845 52.8553 295.615 52.6527 296.266 52.228C296.942 51.843 297.552 51.348 298.239 50.985C299.687 50.2115 301.382 50.0415 302.955 50.5122C304.527 50.9829 305.851 52.0561 306.638 53.4985C307.158 53.2875 307.729 53.2408 308.276 53.3647C308.823 53.4885 309.319 53.7771 309.698 54.1915C310.445 55.0392 310.851 56.1353 310.835 57.2661C310.835 58.0209 310.752 58.7734 310.588 59.51C310.588 59.5705 310.588 59.6311 310.615 59.6971C310.939 62.359 311.076 65.5215 309.95 65.6975C307.978 66.0055 307.929 62.2161 307.929 62.2161C305.374 61.6221 305.764 57.86 305.083 57.398C304.402 56.936 302.952 55.8305 298.25 59.136C296.482 60.2473 294.41 60.7727 292.328 60.6375H292.196H292.163H292.119C291.645 60.5863 291.182 60.462 290.746 60.2691C290.231 60.0619 289.796 59.6958 289.504 59.224C289.364 58.9868 289.296 58.7141 289.308 58.4388C289.319 58.1635 289.41 57.8975 289.57 57.673C289.116 57.2598 288.794 56.7225 288.642 56.1276Z" fill="#263238"/>
<path d="M298.535 83.9741L299.079 103.158L311 77.4676L310.703 75.0861L298.535 83.9741Z" fill="#EBEBEB"/>
<path d="M306.44 141.312C306.006 141.455 281.171 166.584 281.72 171.1C282.269 175.615 299.941 209.05 299.941 209.05L312.576 202.829L300.749 173.525L300.903 171.705L315.356 159.852L314.581 140.8L306.44 141.312Z" fill="#263238"/>
<path d="M311.791 146.267C312.082 146.702 316.378 186.181 317.531 188.221C318.685 190.262 335.945 223.971 335.945 223.971L348.761 218.801L333.116 181.759L334.896 146.702L333.934 136.802L314.581 140.8L311.791 146.267Z" fill="#263238"/>
<path d="M317.306 187.55C317.265 187.421 317.237 187.289 317.224 187.154C317.174 186.868 317.114 186.488 317.037 186.015C316.883 184.992 316.663 183.568 316.4 181.819C315.889 178.238 315.186 173.349 314.405 167.948C313.625 162.547 312.988 157.641 312.494 154.066C312.269 152.306 312.082 150.876 311.944 149.853L311.813 148.703C311.799 148.57 311.799 148.435 311.813 148.302C311.813 148.302 311.846 148.439 311.895 148.698C311.944 148.956 312.005 149.363 312.082 149.836L312.714 154.038C313.23 157.613 313.933 162.503 314.708 167.909C315.482 173.316 316.13 178.211 316.619 181.791C316.85 183.546 317.037 184.976 317.169 185.999C317.224 186.477 317.273 186.862 317.306 187.148C317.319 187.282 317.319 187.416 317.306 187.55Z" fill="#455A64"/>
<path d="M332.792 180.625C332.63 181.688 332.38 182.734 332.045 183.755C331.795 184.799 331.457 185.821 331.034 186.807C331.202 185.752 331.457 184.713 331.797 183.7C332.037 182.648 332.37 181.619 332.792 180.625Z" fill="#455A64"/>
<path d="M334.731 189.568C334.444 189.286 334.206 188.957 334.028 188.595C333.071 186.889 332.655 184.933 332.836 182.985C332.849 182.584 332.931 182.187 333.077 181.813C332.774 184.509 333.353 187.23 334.725 189.568H334.731Z" fill="#455A64"/>
<path d="M296.64 169.263C298.177 169.869 299.438 171.02 300.183 172.497C300.117 172.541 299.502 171.644 298.535 170.759C297.568 169.873 296.58 169.334 296.64 169.263Z" fill="#455A64"/>
<path d="M298.563 168.097C299.076 168.452 299.495 168.928 299.782 169.483C300.151 169.989 300.39 170.578 300.48 171.199C300.142 170.692 299.832 170.167 299.551 169.626C299.194 169.135 298.864 168.624 298.563 168.097Z" fill="#455A64"/>
<path d="M300.277 110.501L303.446 126.264L306.028 148.264C306.028 148.264 316.674 146.773 321.212 145.338C326.474 143.688 337.922 142.247 337.922 142.247L335.989 144.161C340.087 143.011 342.696 139.101 342.696 139.101C335.643 132.55 329.6 119.042 329.6 119.042L324.233 92.356C324.233 92.356 323.42 88.594 322.926 86.9165C322.431 85.239 314.285 79.8435 313.153 79.1615L312.444 78.826L312.219 76.6865L311.379 76.1805L302.567 84.205C300.85 85.7631 299.758 87.8944 299.497 90.2C299.124 93.532 298.996 96.8868 299.112 100.238C299.216 103.4 300.277 110.501 300.277 110.501Z" fill="#FCA43C"/>
<path d="M306.33 83.2041C306.33 83.2041 301.672 85.7066 300.864 87.8296C300.057 89.9526 302.457 113.229 302.457 113.229L285.719 113.548L285.653 123.53C285.653 123.53 312.236 125.637 313.274 124.196C314.669 122.249 316.295 104.06 316.295 104.06L316.899 90.9701C316.899 90.9701 315.378 80.9931 306.33 83.2041Z" fill="#FCA43C"/>
<g opacity="0.3">
<path d="M303.446 126.264C305.611 126.942 307.895 127.154 310.148 126.885C312.505 126.671 314.905 125.378 315.795 123.178C316.476 121.501 316.191 119.603 316.295 117.794C316.389 116.215 316.773 114.675 317.015 113.119C317.257 111.562 316.465 108.719 315.916 107.206C315.916 107.206 315.323 118.008 313.631 122.546C313.443 123.179 313.086 123.75 312.598 124.196C311.999 124.68 311.175 124.746 310.401 124.801C308.264 125.026 303.111 124.652 303.111 124.652" fill="black"/>
</g>
<path d="M316.888 92.4C316.896 92.4805 316.896 92.5615 316.888 92.642C316.888 92.807 316.888 93.038 316.861 93.335C316.861 93.962 316.79 94.8585 316.735 96.008C316.68 97.1575 316.597 98.593 316.509 100.238C316.421 101.882 316.356 103.769 316.152 105.837C315.949 107.905 315.757 110.171 315.499 112.602C315.24 115.033 314.949 117.629 314.482 120.34C314.373 121.033 314.218 121.718 314.021 122.392C313.793 123.096 313.374 123.724 312.812 124.207C312.235 124.705 311.493 124.97 310.73 124.949C309.994 124.949 309.253 124.949 308.533 124.949C305.545 124.872 302.457 124.724 299.293 124.548C294.542 124.289 289.955 123.998 285.686 123.69H285.565V123.569C285.565 120.021 285.604 116.683 285.626 113.597V113.482H285.741L301.897 113.135L306.413 113.058H307.605C307.874 113.058 308.011 113.058 308.011 113.058C308.011 113.058 307.874 113.058 307.605 113.086L306.418 113.135L301.897 113.278L285.747 113.724L285.862 113.608C285.862 116.688 285.862 120.027 285.829 123.574L285.703 123.442C289.982 123.734 294.564 124.031 299.31 124.289C302.468 124.46 305.556 124.619 308.539 124.696C309.286 124.696 310.022 124.724 310.736 124.696C311.439 124.722 312.126 124.481 312.659 124.02C313.183 123.57 313.573 122.984 313.785 122.326C313.978 121.665 314.13 120.992 314.241 120.313C314.708 117.612 315.004 115.016 315.284 112.613C315.565 110.209 315.779 107.927 315.971 105.859C316.163 103.791 316.257 101.91 316.367 100.265C316.476 98.6205 316.564 97.207 316.636 96.041C316.707 94.875 316.773 93.995 316.817 93.3735C316.817 93.0765 316.855 92.8235 316.872 92.675C316.867 92.583 316.872 92.4907 316.888 92.4Z" fill="#263238"/>
<path d="M288.949 123.382C288.82 121.772 288.781 120.156 288.834 118.542C288.798 116.926 288.853 115.31 288.999 113.702C289.129 115.311 289.167 116.927 289.114 118.542C289.15 120.157 289.095 121.773 288.949 123.382Z" fill="#263238"/>
<path d="M287.181 115.22C287.148 115.22 287.312 115.011 287.631 115.121C287.724 115.153 287.806 115.212 287.866 115.29C287.927 115.368 287.963 115.462 287.972 115.561C287.986 115.683 287.961 115.808 287.901 115.916C287.841 116.024 287.749 116.11 287.637 116.162C287.525 116.215 287.399 116.23 287.278 116.207C287.157 116.184 287.046 116.123 286.961 116.034C286.89 115.969 286.838 115.886 286.809 115.794C286.78 115.703 286.775 115.605 286.796 115.511C286.873 115.192 287.093 115.126 287.098 115.159C287.104 115.192 286.994 115.308 286.988 115.533C286.987 115.592 286.998 115.651 287.022 115.705C287.046 115.759 287.081 115.808 287.126 115.847C287.179 115.891 287.244 115.92 287.312 115.931C287.381 115.941 287.451 115.933 287.516 115.907C287.576 115.876 287.627 115.829 287.663 115.771C287.699 115.712 287.718 115.645 287.719 115.577C287.717 115.52 287.701 115.463 287.671 115.414C287.641 115.365 287.599 115.324 287.549 115.297C287.356 115.181 287.197 115.253 287.181 115.22Z" fill="#263238"/>
<path d="M324.315 94.644C324.315 94.644 333.028 106.046 334.088 109.148C335.148 112.25 334.33 116.716 332.555 118.85C330.781 120.984 329.353 120.115 329.353 120.115L324.315 94.644Z" fill="#FCA43C"/>
<path d="M329.051 119.202C328.341 119.458 327.603 119.63 326.853 119.713C326.123 119.886 325.374 119.967 324.623 119.955C325.333 119.698 326.07 119.526 326.82 119.444C327.551 119.271 328.3 119.19 329.051 119.202Z" fill="#263238"/>
<path d="M330.699 127.6C330.797 127.792 330.876 127.992 330.935 128.2C331.067 128.596 331.264 129.157 331.523 129.85C332.199 131.656 332.981 133.42 333.863 135.135C334.751 136.845 335.727 138.508 336.785 140.118C337.192 140.74 337.527 141.218 337.763 141.576C337.897 141.745 338.012 141.93 338.104 142.126C337.943 141.981 337.799 141.819 337.675 141.642C337.417 141.317 337.054 140.839 336.626 140.228C335.512 138.648 334.507 136.994 333.616 135.278C332.724 133.556 331.964 131.769 331.341 129.932C331.105 129.228 330.929 128.651 330.831 128.249C330.758 128.04 330.714 127.821 330.699 127.6Z" fill="#263238"/>
<g opacity="0.3">
<path d="M331.303 128.953C332.687 131.417 334.105 133.903 336.203 135.811C336.997 136.415 337.716 137.111 338.345 137.885C338.895 138.704 339.153 139.849 338.615 140.69C338.534 140.847 338.408 140.976 338.253 141.059C338.098 141.143 337.922 141.177 337.747 141.157C337.517 141.069 337.324 140.907 337.197 140.695C334.57 137.308 332.607 133.452 331.413 129.332" fill="black"/>
</g>
<g opacity="0.3">
<path d="M330.149 120.071C331.341 119.213 331.759 117.585 331.583 116.122C331.407 114.659 330.737 113.317 330.138 111.98C328.328 107.984 326.91 103.821 325.903 99.5501L325.052 96.3876L329.358 118.938L330.149 120.071Z" fill="black"/>
</g>
<path d="M308.599 82.1921C309.113 81.6163 309.663 81.0743 310.247 80.5696C310.762 79.9862 311.312 79.4352 311.895 78.9196C311.528 79.6049 311.045 80.221 310.467 80.7401C309.939 81.3356 309.306 81.828 308.599 82.1921Z" fill="#263238"/>
<path d="M307.72 84.15C307.72 84.1995 307.215 84.3535 306.446 84.733C304.427 85.7358 302.801 87.3851 301.826 89.419C301.452 90.1945 301.276 90.7115 301.276 90.7005C301.275 90.5715 301.295 90.4432 301.337 90.321C301.421 89.9849 301.532 89.6558 301.666 89.3365C302.574 87.2 304.262 85.4906 306.385 84.557C306.702 84.418 307.029 84.304 307.363 84.216C307.478 84.1743 307.598 84.152 307.72 84.15Z" fill="#263238"/>
<path d="M331.105 122.342C331.05 122.275 331.004 122.201 330.968 122.122L330.622 121.468C330.309 120.857 329.886 120.027 329.364 119.015C328.814 116.518 328.051 112.877 327.21 108.823C326.43 104.979 325.755 101.519 325.205 99.0001L324.656 96.0136C324.601 95.6891 324.552 95.4196 324.513 95.1996C324.49 95.106 324.481 95.0097 324.486 94.9136C324.523 95.0021 324.55 95.0943 324.568 95.1886C324.618 95.4031 324.683 95.6726 324.76 95.9971C324.925 96.7341 325.15 97.7351 325.42 98.9616C325.969 101.503 326.683 104.957 327.485 108.768C328.326 112.822 329.062 116.468 329.551 118.982C330.039 120.01 330.435 120.852 330.726 121.473L331.034 122.15C331.064 122.211 331.088 122.276 331.105 122.342Z" fill="#263238"/>
<path d="M302.172 113.223C302.102 112.953 302.058 112.677 302.04 112.398C301.98 111.815 301.897 111.051 301.798 110.132C301.601 108.224 301.348 105.578 301.09 102.663C300.831 99.7481 300.612 97.0971 300.463 95.1776C300.397 94.2591 300.348 93.4946 300.304 92.9116C300.279 92.6335 300.279 92.3537 300.304 92.0756C300.367 92.347 300.409 92.6228 300.43 92.9006C300.491 93.4836 300.573 94.2481 300.678 95.1666C300.87 97.0751 301.123 99.7151 301.381 102.636C301.639 105.556 301.859 108.202 302.007 110.116C302.073 111.034 302.122 111.799 302.166 112.387C302.188 112.665 302.189 112.945 302.172 113.223Z" fill="#263238"/>
<path d="M285.933 114.714C285.933 114.714 282.319 111.964 281.44 111.804C280.764 111.678 276.738 111.749 274.886 111.804C274.54 111.801 274.207 111.934 273.959 112.175C273.71 112.416 273.566 112.745 273.557 113.091C273.552 113.135 273.552 113.179 273.557 113.223C273.603 113.443 273.71 113.645 273.865 113.806C274.021 113.968 274.219 114.082 274.436 114.136C274.155 114.226 273.91 114.403 273.735 114.641C273.561 114.879 273.466 115.166 273.464 115.462C273.464 116.507 274.711 116.727 274.711 116.727L274.529 116.892C274.373 117.05 274.262 117.248 274.207 117.464C274.153 117.68 274.158 117.907 274.22 118.121C274.283 118.335 274.402 118.528 274.565 118.68C274.727 118.832 274.927 118.938 275.145 118.987L275.694 119.119C275.483 119.205 275.3 119.347 275.165 119.531C275.031 119.714 274.949 119.932 274.93 120.159C274.93 121.534 278.051 121.809 278.051 121.809C278.051 121.809 285.703 123.024 285.868 122.969C286.032 122.914 285.933 114.714 285.933 114.714Z" fill="#FFBE9D"/>
<path d="M275.595 110.154C275.628 110.611 275.738 111.579 276.507 112.013L280.775 111.848C280.775 111.848 277.6 110.748 277.144 110.198C276.968 109.973 276.763 109.771 276.534 109.599C276.44 109.535 276.329 109.499 276.215 109.496C276.101 109.492 275.988 109.521 275.89 109.579C275.791 109.638 275.711 109.722 275.659 109.824C275.607 109.926 275.585 110.04 275.595 110.154Z" fill="#FFBE9D"/>
<path d="M278.765 111.804C278.128 111.955 277.471 112.001 276.82 111.942C276.169 111.98 275.515 111.934 274.875 111.804C275.515 111.661 276.172 111.614 276.826 111.667C277.475 111.634 278.126 111.68 278.765 111.804Z" fill="#EB996E"/>
<path d="M277.809 114.191C277.267 114.366 276.694 114.424 276.128 114.362C275.564 114.383 275.002 114.283 274.48 114.07C275.037 114.01 275.598 114.01 276.155 114.07C276.709 114.048 277.264 114.088 277.809 114.191Z" fill="#EB996E"/>
<path d="M279.979 113.883C280.045 113.927 279.979 114.158 279.721 114.312C279.462 114.466 279.232 114.45 279.226 114.373C279.221 114.296 279.38 114.202 279.567 114.081C279.754 113.96 279.913 113.85 279.979 113.883Z" fill="#EB996E"/>
<path d="M278.276 116.897C277.055 117.04 275.82 116.999 274.612 116.776C275.217 116.655 275.838 116.628 276.452 116.694C277.067 116.67 277.681 116.739 278.276 116.897Z" fill="#EB996E"/>
<path d="M280.709 115.753C280.742 115.753 280.808 115.83 280.83 115.995C280.854 116.22 280.789 116.445 280.649 116.622C280.51 116.8 280.307 116.916 280.083 116.947C279.918 116.947 279.819 116.947 279.819 116.886C279.819 116.826 280.187 116.765 280.429 116.452C280.671 116.138 280.643 115.77 280.709 115.753Z" fill="#EB996E"/>
<path d="M278.924 119.543C278.375 119.61 277.818 119.588 277.276 119.477C276.711 119.457 276.154 119.341 275.628 119.136C276.177 119.068 276.734 119.09 277.276 119.202C277.84 119.225 278.397 119.34 278.924 119.543Z" fill="#EB996E"/>
<path d="M281.303 118.195C281.336 118.195 281.391 118.283 281.385 118.454C281.363 118.656 281.283 118.847 281.154 119.004C280.847 119.383 280.495 119.521 280.457 119.466C280.418 119.411 280.682 119.152 280.94 118.833C281.198 118.514 281.259 118.212 281.303 118.195Z" fill="#EB996E"/>
<path d="M334.544 144.381C335.299 144.308 336.027 144.059 336.669 143.654C337.311 143.249 337.849 142.699 338.241 142.049C338.329 141.9 338.406 141.697 338.29 141.57C338.246 141.533 338.194 141.505 338.138 141.488C338.083 141.471 338.024 141.465 337.966 141.471C336.771 141.462 335.585 141.667 334.462 142.076C334.396 142.091 334.334 142.12 334.28 142.161C334.226 142.201 334.181 142.253 334.148 142.313C334.119 142.406 334.119 142.506 334.148 142.599C334.297 143.176 334.445 143.754 334.599 144.337" fill="#FCA43C"/>
<g opacity="0.4">
<path d="M334.544 144.381C335.299 144.308 336.027 144.059 336.669 143.654C337.311 143.249 337.849 142.699 338.241 142.049C338.329 141.9 338.406 141.697 338.29 141.57C338.246 141.533 338.194 141.505 338.138 141.488C338.083 141.471 338.024 141.465 337.966 141.471C336.771 141.462 335.585 141.667 334.462 142.076C334.396 142.091 334.334 142.12 334.28 142.161C334.226 142.201 334.181 142.253 334.148 142.313C334.119 142.406 334.119 142.506 334.148 142.599C334.297 143.176 334.445 143.754 334.599 144.337" fill="black"/>
</g>
<path d="M298.535 83.974C298.535 83.974 296.777 89.8755 297.261 89.54C297.744 89.2045 298.793 88.275 298.793 88.275L298.535 83.974Z" fill="#EBEBEB"/>
<path d="M298.634 86.6965L297.678 88.9955C297.583 89.2334 297.52 89.4832 297.491 89.738C297.409 90.3815 297.321 91.5585 297.7 91.641C297.892 91.6518 298.084 91.6194 298.262 91.5461C298.44 91.4728 298.599 91.3605 298.727 91.2175L298.634 86.6965Z" fill="#263238"/>
<path d="M328.408 87.0596C328.408 87.0596 319.02 83.3911 313.818 86.6306C308.615 89.8701 307.671 95.0401 304.572 95.0401C298.53 95.0401 298.727 90.7721 298.727 90.7721L297.442 91.1626C297.442 92.0371 296.047 98.3126 302.386 99.0771C308.725 99.8416 311.428 91.1681 317.152 91.1626C320.733 91.2232 324.224 92.2967 327.221 94.2591L331.336 91.6576L328.408 87.0596Z" fill="#263238"/>
<path d="M304.331 99.0001C305.95 98.0342 307.218 96.5753 307.951 94.8366C309.412 91.4651 312.543 87.6206 315.158 86.6526C317.773 85.6846 323.821 85.0026 328.001 87.7526L330.677 91.3716L327.205 93.6321C325.252 92.6053 323.2 91.7814 321.08 91.1736C316.762 89.9691 314.136 91.3331 311.626 93.7091C311.472 93.8576 311.324 94.0061 311.203 94.1491C309.99 95.4439 308.658 96.6224 307.226 97.6691C305.979 98.5106 304.88 99.0001 304.331 99.0001Z" fill="#455A64"/>
<path d="M109.867 47.7785C104.296 48.642 100.215 43.9285 98.913 39.787C97.7099 35.937 97.1386 31.9275 95.4522 28.237C93.09 23.122 86.8386 20.757 81.2299 21.23C75.6212 21.703 69.9631 24.53 64.9971 27.1755L66.3705 57.9755C66.3705 57.9755 77.1758 46.4255 82.3725 46.2385C91.041 45.892 90.5686 60.1535 98.9844 62.26C98.9844 62.26 110.784 65.461 118.76 55.1485C123.82 48.598 124.254 40.645 124.254 40.645C124.254 40.645 120.375 46.156 109.867 47.7785Z" fill="#FCA43C"/>
<path d="M64.7554 22.0935C64.8323 22.0935 66.3485 54.8075 68.1393 95.161C69.9301 135.515 71.3254 168.24 71.2485 168.245C71.1716 168.251 69.661 135.537 67.8646 95.172C66.0683 54.8075 64.6785 22.099 64.7554 22.0935Z" fill="#263238"/>
<g opacity="0.2">
<path d="M94.4853 37.653C95.4291 40.9073 96.8076 44.0191 98.5834 46.904C100.187 49.4175 102.621 51.535 105.538 52.1455C106.072 52.2174 106.596 52.3522 107.098 52.547C107.349 52.649 107.567 52.8168 107.73 53.0326C107.894 53.2484 107.996 53.5044 108.026 53.7735C108.026 54.582 107.219 55.11 106.494 55.4675C105.487 56.0208 104.409 56.4352 103.291 56.6995C102.192 56.9085 101.281 57.0295 100.506 56.1495C99.7568 55.4141 99.0832 54.6052 98.4955 53.735C95.9521 49.3955 94.6941 43.1915 94.4853 38.2855" fill="black"/>
</g>
<path d="M102.039 57.4365C102.039 57.4365 101.951 57.398 101.791 57.2935C101.561 57.1429 101.339 56.9795 101.127 56.804C100.344 56.1559 99.6533 55.4047 99.0723 54.571C98.2118 53.3334 97.5191 51.987 97.0123 50.567C96.3961 48.8347 95.8879 47.0658 95.4906 45.2705C94.736 42.017 94.2601 38.705 94.0678 35.3705C93.9964 34.0945 93.9854 33.0605 93.9854 32.3455C93.9854 32.01 93.9854 31.7405 93.9854 31.5205C93.9761 31.4254 93.9761 31.3296 93.9854 31.2345C94.0102 31.3277 94.0213 31.4241 94.0184 31.5205C94.0184 31.7405 94.0184 32.01 94.0514 32.34C94.0843 33.055 94.1228 34.089 94.2217 35.3595C94.4712 38.6742 94.9707 41.9652 95.7158 45.2045C96.119 46.9905 96.6252 48.7516 97.232 50.479C97.7299 51.8812 98.4016 53.2154 99.2316 54.45C99.7899 55.2814 100.449 56.0407 101.193 56.7105C101.726 57.2 102.055 57.42 102.039 57.4365Z" fill="#263238"/>
<path d="M31.1692 174.746L104.763 186.807V174.746H31.1692Z" fill="#E0E0E0"/>
<path d="M116.909 201.998L190.509 214.06V201.998H116.909Z" fill="#E0E0E0"/>
<path d="M202.061 228.063L275.661 240.124V228.063H202.061Z" fill="#E0E0E0"/>
<path d="M287.104 248.809L360.698 260.87V248.809H287.104Z" fill="#E0E0E0"/>
<path d="M104.763 165.715H31.1692V174.751H104.763V165.715Z" fill="#FCA43C"/>
<g opacity="0.3">
<path d="M104.763 165.715H81.7957V174.751H104.763V165.715Z" fill="black"/>
</g>
<path d="M190.503 192.962H116.909V201.998H190.503V192.962Z" fill="#FCA43C"/>
<g opacity="0.3">
<path d="M190.509 192.962H167.541V201.998H190.509V192.962Z" fill="black"/>
</g>
<path d="M275.661 219.026H202.067V228.063H275.661V219.026Z" fill="#FCA43C"/>
<g opacity="0.3">
<path d="M275.661 219.026H252.693V228.063H275.661V219.026Z" fill="black"/>
</g>
<path d="M360.813 239.772H287.219V248.809H360.813V239.772Z" fill="#FCA43C"/>
<g opacity="0.3">
<path d="M360.813 239.772H337.845V248.809H360.813V239.772Z" fill="black"/>
</g>
<path d="M315.46 206.888C315.461 207.284 315.579 207.67 315.8 207.999C316.02 208.327 316.333 208.583 316.698 208.734C317.064 208.884 317.466 208.923 317.853 208.845C318.241 208.767 318.596 208.576 318.876 208.296C319.155 208.016 319.345 207.659 319.421 207.271C319.498 206.883 319.458 206.481 319.307 206.115C319.155 205.75 318.899 205.437 318.57 205.218C318.241 204.998 317.855 204.88 317.46 204.88C317.197 204.88 316.936 204.932 316.693 205.033C316.45 205.134 316.23 205.282 316.044 205.469C315.858 205.655 315.711 205.877 315.611 206.12C315.511 206.364 315.459 206.625 315.46 206.888Z" fill="#EBEBEB"/>
</svg>
